<?xml version="1.0" encoding="UTF-8"?>
<svg id="Layer_2" data-name="Layer 2" xmlns="http://www.w3.org/2000/svg" viewBox="0 0 496.52 401.09">
  <defs>
    <style>
      .cls-1 {
        fill: #fff;
      }
    </style>
  </defs>
  <g id="Camada_1" data-name="Camada 1">
    <g>
      <path d="M454.12,43.86H70.5c-17.51,0-31.7,14.19-31.7,31.7v275.44c0,17.51,14.19,31.7,31.7,31.7h383.61c17.51,0,31.7-14.19,31.7-31.7V75.56c0-17.51-14.19-31.7-31.7-31.7ZM466.62,356.81c0,3.7-3,6.7-6.7,6.7H64.7c-3.7,0-6.7-3-6.7-6.7V69.76c0-3.7,3-6.7,6.7-6.7h395.23c3.7,0,6.7,3,6.7,6.7v287.05Z"/>
      <path d="M451.55,357.83H73.07c-5.18,0-9.4-4.21-9.4-9.4V78.13c0-5.18,4.21-9.4,9.4-9.4h378.48c5.18,0,9.4,4.22,9.4,9.4v270.31c0,5.18-4.21,9.4-9.4,9.4ZM73.07,72.73c-2.98,0-5.4,2.42-5.4,5.4v270.31c0,2.98,2.42,5.4,5.4,5.4h378.48c2.98,0,5.4-2.42,5.4-5.4V78.13c0-2.98-2.42-5.4-5.4-5.4H73.07Z"/>
      <g>
        <rect x="104.12" y="107.01" width="35.21" height="212.54" rx="6.84" ry="6.84"/>
        <rect x="148.32" y="158.48" width="35.21" height="161.07" rx="6.84" ry="6.84"/>
        <rect x="192.51" y="209.95" width="35.21" height="109.6" rx="6.84" ry="6.84"/>
      </g>
      <path d="M363.86,250.57h56.92c3.49,0,6.19,3.02,5.86,6.49-3.32,34.84-33.02,62.48-68.67,62.48-37.84,0-68.98-31.14-68.98-68.98,0-35.62,27.58-65.3,62.39-68.66,3.48-.34,6.5,2.36,6.5,5.85l.08,56.92c0,3.25,2.64,5.88,5.89,5.88Z"/>
      <path d="M365.3,153.56c-.51,0-1.02-.2-1.41-.59l-20.88-20.88-17.44,17.44c-.78.78-2.05.78-2.83,0l-35.16-35.16c-.78-.78-.78-2.05,0-2.83.78-.78,2.05-.78,2.83,0l33.74,33.74,17.44-17.44c.78-.78,2.05-.78,2.83,0l20.88,20.88,23.33-23.33c.78-.78,2.05-.78,2.83,0l6.93,6.93,26.87-26.87c.78-.78,2.05-.78,2.83,0,.78.78.78,2.05,0,2.83l-28.28,28.28c-.78.78-2.05.78-2.83,0l-6.93-6.93-23.33,23.33c-.39.39-.9.59-1.41.59Z"/>
      <path d="M402.42,145.99c-.07,0-.14-.02-.21-.06l-23.09-15.25-6.67,4.4c-.13.08-.29.08-.41,0l-20.18-13.32-18.16,11.99c-.13.08-.29.08-.41,0l-15.33-10.12-28.75,18.98c-.17.11-.41.07-.52-.11-.11-.17-.07-.41.11-.52l28.96-19.12c.13-.08.29-.08.41,0l15.33,10.12,18.16-11.99c.13-.08.29-.08.41,0l20.18,13.32,6.67-4.4c.13-.08.29-.08.41,0l23.3,15.38c.17.11.22.35.11.52-.07.11-.19.17-.31.17Z"/>
      <rect x="261.81" y="107.02" width="1" height="212.54"/>
    </g>
    <circle class="cls-1" cx="60.66" cy="60.66" r="60.66"/>
    <circle cx="60.66" cy="60.66" r="46.36"/>
    <circle class="cls-1" cx="458.95" cy="363.51" r="37.58"/>
    <circle cx="458.95" cy="363.51" r="28.72"/>
  </g>
</svg>