<?xml version="1.0" encoding="utf-8"?>
<!-- Generator: Adobe Illustrator 27.7.0, SVG Export Plug-In . SVG Version: 6.00 Build 0)  -->
<svg version="1.1" id="Layer_2" xmlns="http://www.w3.org/2000/svg" xmlns:xlink="http://www.w3.org/1999/xlink" x="0px" y="0px"
	 viewBox="0 0 485.8 382.7" style="enable-background:new 0 0 485.8 382.7;" xml:space="preserve">
<style type="text/css">
	.st0{fill:#FFFFFF;}
</style>
<g id="Camada_1">
	<g>
		<path class="st0" d="M139.3,113.8v198.9c0,3.8-3.1,6.8-6.8,6.8H111c-3.8,0-6.8-3.1-6.8-6.8V113.8c0-3.8,3.1-6.8,6.8-6.8h21.5
			C136.3,107,139.3,110.1,139.3,113.8z"/>
		<path class="st0" d="M183.5,165.3v147.4c0,3.8-3.1,6.8-6.8,6.8h-21.5c-3.8,0-6.8-3.1-6.8-6.8V165.3c0-3.8,3.1-6.8,6.8-6.8h21.5
			C180.5,158.5,183.5,161.5,183.5,165.3z"/>
		<path class="st0" d="M227.7,216.8v95.9c0,3.8-3.1,6.8-6.8,6.8h-21.5c-3.8,0-6.8-3.1-6.8-6.8v-95.9c0-3.8,3.1-6.8,6.8-6.8h21.5
			C224.7,210,227.7,213,227.7,216.8z"/>
		<rect x="261.8" y="107" class="st0" width="1" height="212.5"/>
		<path class="st0" d="M397,136.6c0.8,0.8,2.1,0.8,2.8,0l28.3-28.3c0.8-0.8,0.8-2.1,0-2.8c-0.8-0.8-2.1-0.8-2.8,0l-26.9,26.9
			l-6.9-6.9c-0.8-0.8-2.1-0.8-2.8,0l-6.4,6.4l-2.9-1.9c-0.1-0.1-0.3-0.1-0.4,0l-6.7,4.4L352.1,121c-0.1-0.1-0.3-0.1-0.4,0l-18.2,12
			l-15.3-10.1c-0.1-0.1-0.3-0.1-0.4,0l-9.7,6.4l-17.7-17.7c-0.8-0.8-2-0.8-2.8,0c-0.8,0.8-0.8,2.1,0,2.8l17.1,17.1L288.8,142
			c-0.2,0.1-0.2,0.4-0.1,0.5c0.1,0.2,0.3,0.2,0.5,0.1l16-10.6l17.5,17.5c0.8,0.8,2,0.8,2.8,0l17.4-17.4l20.9,20.9
			c0.4,0.4,0.9,0.6,1.4,0.6l0,0c0.5,0,1-0.2,1.4-0.6l18.4-18.4l17.1,11.3c0.1,0,0.1,0.1,0.2,0.1l0,0c0.1,0,0.2-0.1,0.3-0.2
			c0.1-0.2,0.1-0.4-0.1-0.5l-17-11.2l4.4-4.4L397,136.6z M324.2,145.3l-15.5-15.5l9.3-6.2l15.3,10.1c0.1,0.1,0.3,0.1,0.4,0l5.8-3.8
			L324.2,145.3z M365.3,148.7l-20.9-20.9c-0.3-0.3-0.6-0.5-1-0.5l8.4-5.6l20.2,13.3c0.1,0.1,0.3,0.1,0.4,0l6.7-4.4l2.5,1.7
			L365.3,148.7z"/>
		<path class="st0" d="M426.6,257.1c-3.3,34.8-33,62.5-68.7,62.5c-37.8,0-69-31.1-69-69c0-35.6,27.6-65.3,62.4-68.7
			c3.5-0.3,6.5,2.4,6.5,5.8l0.1,56.9c0,3.2,2.6,5.9,5.9,5.9l0,0h56.9C424.3,250.6,427,253.6,426.6,257.1z"/>
		<path class="st0" d="M454.1,43.9H119c1.5,5.3,2.4,11,2.4,16.8c0,0.8,0,1.6,0,2.4h338.6c3.7,0,6.7,3,6.7,6.7v287
			c0,3.7-3,6.7-6.7,6.7H64.7c-3.7,0-6.7-3-6.7-6.7V121.3c-6.7-0.3-13.2-1.7-19.2-4V351c0,17.5,14.2,31.7,31.7,31.7h383.6
			c17.5,0,31.7-14.2,31.7-31.7V75.6C485.8,58,471.6,43.9,454.1,43.9z M73.1,357.8h378.5v0c5.2,0,9.4-4.2,9.4-9.4V78.1
			c0-5.2-4.2-9.4-9.4-9.4H120.8c-0.2,1.3-0.4,2.7-0.7,4h331.4c3,0,5.4,2.4,5.4,5.4v270.3c0,3-2.4,5.4-5.4,5.4H73.1
			c-3,0-5.4-2.4-5.4-5.4V120.9c-1.3,0.2-2.6,0.3-4,0.3v227.2C63.7,353.6,67.9,357.8,73.1,357.8z"/>
		<path class="st0" d="M139.3,113.8v198.9c0,3.8-3.1,6.8-6.8,6.8H111c-3.8,0-6.8-3.1-6.8-6.8V113.8c0-3.8,3.1-6.8,6.8-6.8h21.5
			C136.3,107,139.3,110.1,139.3,113.8z"/>
		<path class="st0" d="M183.5,165.3v147.4c0,3.8-3.1,6.8-6.8,6.8h-21.5c-3.8,0-6.8-3.1-6.8-6.8V165.3c0-3.8,3.1-6.8,6.8-6.8h21.5
			C180.5,158.5,183.5,161.5,183.5,165.3z"/>
		<path class="st0" d="M227.7,216.8v95.9c0,3.8-3.1,6.8-6.8,6.8h-21.5c-3.8,0-6.8-3.1-6.8-6.8v-95.9c0-3.8,3.1-6.8,6.8-6.8h21.5
			C224.7,210,227.7,213,227.7,216.8z"/>
		<rect x="261.8" y="107" class="st0" width="1" height="212.5"/>
		<path class="st0" d="M397,136.6c0.8,0.8,2.1,0.8,2.8,0l28.3-28.3c0.8-0.8,0.8-2.1,0-2.8c-0.8-0.8-2.1-0.8-2.8,0l-26.9,26.9
			l-6.9-6.9c-0.8-0.8-2.1-0.8-2.8,0l-6.4,6.4l-2.9-1.9c-0.1-0.1-0.3-0.1-0.4,0l-6.7,4.4L352.1,121c-0.1-0.1-0.3-0.1-0.4,0l-18.2,12
			l-15.3-10.1c-0.1-0.1-0.3-0.1-0.4,0l-9.7,6.4l-17.7-17.7c-0.8-0.8-2-0.8-2.8,0c-0.8,0.8-0.8,2.1,0,2.8l17.1,17.1L288.8,142
			c-0.2,0.1-0.2,0.4-0.1,0.5c0.1,0.2,0.3,0.2,0.5,0.1l16-10.6l17.5,17.5c0.8,0.8,2,0.8,2.8,0l17.4-17.4l20.9,20.9
			c0.4,0.4,0.9,0.6,1.4,0.6l0,0c0.5,0,1-0.2,1.4-0.6l18.4-18.4l17.1,11.3c0.1,0,0.1,0.1,0.2,0.1l0,0c0.1,0,0.2-0.1,0.3-0.2
			c0.1-0.2,0.1-0.4-0.1-0.5l-17-11.2l4.4-4.4L397,136.6z M324.2,145.3l-15.5-15.5l9.3-6.2l15.3,10.1c0.1,0.1,0.3,0.1,0.4,0l5.8-3.8
			L324.2,145.3z M365.3,148.7l-20.9-20.9c-0.3-0.3-0.6-0.5-1-0.5l8.4-5.6l20.2,13.3c0.1,0.1,0.3,0.1,0.4,0l6.7-4.4l2.5,1.7
			L365.3,148.7z"/>
		<path class="st0" d="M426.6,257.1c-3.3,34.8-33,62.5-68.7,62.5c-37.8,0-69-31.1-69-69c0-35.6,27.6-65.3,62.4-68.7
			c3.5-0.3,6.5,2.4,6.5,5.8l0.1,56.9c0,3.2,2.6,5.9,5.9,5.9l0,0h56.9C424.3,250.6,427,253.6,426.6,257.1z"/>
		<path class="st0" d="M451.5,68.7H120.8c-0.2,1.3-0.4,2.7-0.7,4h331.4c3,0,5.4,2.4,5.4,5.4v270.3c0,3-2.4,5.4-5.4,5.4H73.1
			c-3,0-5.4-2.4-5.4-5.4V120.9c-1.3,0.2-2.6,0.3-4,0.3v227.2c0,5.2,4.2,9.4,9.4,9.4h378.5v0c5.2,0,9.4-4.2,9.4-9.4V78.1
			C461,73,456.7,68.7,451.5,68.7z"/>
		<path class="st0" d="M451.5,68.7H120.8c-0.2,1.3-0.4,2.7-0.7,4h331.4c3,0,5.4,2.4,5.4,5.4v270.3c0,3-2.4,5.4-5.4,5.4H73.1
			c-3,0-5.4-2.4-5.4-5.4V120.9c-1.3,0.2-2.6,0.3-4,0.3v227.2c0,5.2,4.2,9.4,9.4,9.4h378.5v0c5.2,0,9.4-4.2,9.4-9.4V78.1
			C461,73,456.7,68.7,451.5,68.7z"/>
		<g>
			<path class="st0" d="M139.3,113.8v198.9c0,3.8-3.1,6.8-6.8,6.8H111c-3.8,0-6.8-3.1-6.8-6.8V113.8c0-3.8,3.1-6.8,6.8-6.8h21.5
				C136.3,107,139.3,110.1,139.3,113.8z"/>
			<path class="st0" d="M183.5,165.3v147.4c0,3.8-3.1,6.8-6.8,6.8h-21.5c-3.8,0-6.8-3.1-6.8-6.8V165.3c0-3.8,3.1-6.8,6.8-6.8h21.5
				C180.5,158.5,183.5,161.5,183.5,165.3z"/>
			<path class="st0" d="M227.7,216.8v95.9c0,3.8-3.1,6.8-6.8,6.8h-21.5c-3.8,0-6.8-3.1-6.8-6.8v-95.9c0-3.8,3.1-6.8,6.8-6.8h21.5
				C224.7,210,227.7,213,227.7,216.8z"/>
		</g>
		<path class="st0" d="M426.6,257.1c-3.3,34.8-33,62.5-68.7,62.5c-37.8,0-69-31.1-69-69c0-35.6,27.6-65.3,62.4-68.7
			c3.5-0.3,6.5,2.4,6.5,5.8l0.1,56.9c0,3.2,2.6,5.9,5.9,5.9l0,0h56.9C424.3,250.6,427,253.6,426.6,257.1z"/>
		<path class="st0" d="M428.1,108.3l-28.3,28.3c-0.8,0.8-2,0.8-2.8,0l-6.9-6.9L366.7,153c-0.4,0.4-0.9,0.6-1.4,0.6l0,0
			c-0.5,0-1-0.2-1.4-0.6L343,132.1l-17.4,17.4c-0.8,0.8-2,0.8-2.8,0L305.2,132l-0.5-0.5l-17.1-17.1c-0.8-0.8-0.8-2,0-2.8
			c0.8-0.8,2-0.8,2.8,0l33.7,33.7l17.4-17.4c0.5-0.5,1.2-0.7,1.9-0.5c0.4,0.1,0.7,0.2,1,0.5l20.9,20.9l16.4-16.4l0.6-0.5l6.4-6.4
			c0.8-0.8,2-0.8,2.8,0l6.9,6.9l26.9-26.9c0.8-0.8,2-0.8,2.8,0C428.9,106.2,428.9,107.5,428.1,108.3z"/>
		<path class="st0" d="M402.7,145.8c-0.1,0.1-0.2,0.2-0.3,0.2l0,0c-0.1,0-0.1,0-0.2-0.1l-17.1-11.3l-3.4-2.2l-2.5-1.7l-6.7,4.4
			c-0.1,0.1-0.3,0.1-0.4,0l-20.2-13.3l-8.4,5.6l-3.9,2.6l-5.8,3.8c-0.1,0.1-0.3,0.1-0.4,0L318,123.6l-9.3,6.2l-3.4,2.2l-16,10.6
			c-0.2,0.1-0.4,0.1-0.5-0.1c-0.1-0.2-0.1-0.4,0.1-0.5l15.9-10.5l3.4-2.3l9.7-6.4c0.1-0.1,0.3-0.1,0.4,0l15.3,10.1l18.2-12
			c0.1-0.1,0.3-0.1,0.4,0l20.2,13.3l6.7-4.4c0.1-0.1,0.3-0.1,0.4,0l2.9,1.9l3.4,2.2l17,11.2C402.8,145.4,402.8,145.6,402.7,145.8z"
			/>
		<rect x="261.8" y="107" class="st0" width="1" height="212.5"/>
	</g>
	<path class="st0" d="M107,60.7c0,0.8,0,1.6-0.1,2.4c-0.1,1.9-0.3,3.8-0.6,5.7c-0.2,1.4-0.5,2.7-0.9,4c-4.7,17.6-19.5,31-37.8,33.8
		c-1.3,0.2-2.6,0.3-4,0.4c-1,0.1-2,0.1-3,0.1c-0.9,0-1.8,0-2.7-0.1c-6.9-0.4-13.4-2.3-19.2-5.4c-14.6-7.8-24.5-23.2-24.5-40.9
		c0-25.6,20.8-46.4,46.4-46.4c19.7,0,36.5,12.3,43.2,29.6C105.9,49.1,107,54.7,107,60.7z"/>
</g>
</svg>
