<?xml version="1.0" encoding="UTF-8"?>
<svg id="Camada_1" data-name="Camada 1" xmlns="http://www.w3.org/2000/svg" viewBox="0 0 1080 1080">
  <defs>
    <style>
      .cls-1 {
        fill: #fff;
      }
    </style>
  </defs>
  <g>
    <rect x="316.49" y="339.08" width="447.01" height="338.84" rx="31.7" ry="31.7"/>
    <path class="cls-1" d="M396.47,304.19h287.05c3.7,0,6.7,3,6.7,6.7v395.23c0,3.7-3,6.7-6.7,6.7h-287.05c-3.7,0-6.7-3-6.7-6.7v-395.23c0-3.7,3-6.7,6.7-6.7Z" transform="translate(1048.5 -31.5) rotate(90)"/>
    <path d="M729.24,653.05h-378.48c-5.18,0-9.4-4.21-9.4-9.4v-270.31c0-5.18,4.21-9.4,9.4-9.4h378.48c5.18,0,9.4,4.22,9.4,9.4v270.31c0,5.18-4.21,9.4-9.4,9.4ZM350.76,367.95c-2.98,0-5.4,2.42-5.4,5.4v270.31c0,2.98,2.42,5.4,5.4,5.4h378.48c2.98,0,5.4-2.42,5.4-5.4v-270.31c0-2.98-2.42-5.4-5.4-5.4h-378.48Z"/>
    <g>
      <rect x="381.81" y="402.23" width="35.21" height="212.54" rx="6.84" ry="6.84"/>
      <rect x="426.01" y="453.7" width="35.21" height="161.07" rx="6.84" ry="6.84"/>
      <rect x="470.2" y="505.17" width="35.21" height="109.6" rx="6.84" ry="6.84"/>
    </g>
    <path d="M641.55,545.79h56.92c3.49,0,6.19,3.02,5.86,6.49-3.32,34.84-33.02,62.48-68.67,62.48-37.84,0-68.98-31.14-68.98-68.98,0-35.62,27.58-65.3,62.39-68.66,3.48-.34,6.5,2.36,6.5,5.85l.08,56.92c0,3.25,2.64,5.88,5.89,5.88Z"/>
    <path d="M642.99,448.78c-.51,0-1.02-.2-1.41-.59l-20.88-20.88-17.44,17.44c-.78.78-2.05.78-2.83,0l-35.16-35.16c-.78-.78-.78-2.05,0-2.83.78-.78,2.05-.78,2.83,0l33.74,33.74,17.44-17.44c.78-.78,2.05-.78,2.83,0l20.88,20.88,23.33-23.33c.78-.78,2.05-.78,2.83,0l6.93,6.93,26.87-26.87c.78-.78,2.05-.78,2.83,0,.78.78.78,2.05,0,2.83l-28.28,28.28c-.78.78-2.05.78-2.83,0l-6.93-6.93-23.33,23.33c-.39.39-.9.59-1.41.59Z"/>
    <path d="M680.11,441.21c-.07,0-.14-.02-.21-.06l-23.09-15.25-6.67,4.4c-.13.08-.29.08-.41,0l-20.18-13.32-18.16,11.99c-.13.08-.29.08-.41,0l-15.33-10.12-28.75,18.98c-.17.11-.41.07-.52-.11-.11-.17-.07-.41.11-.52l28.96-19.12c.13-.08.29-.08.41,0l15.33,10.12,18.16-11.99c.13-.08.29-.08.41,0l20.18,13.32,6.67-4.4c.13-.08.29-.08.41,0l23.3,15.38c.17.11.22.35.11.52-.07.11-.19.17-.31.17Z"/>
    <rect x="539.5" y="402.23" width="1" height="212.54"/>
  </g>
  <circle class="cls-1" cx="338.35" cy="355.88" r="60.66"/>
  <rect x="520.46" y="672.41" width="39.09" height="66.57"/>
  <path d="M419.97,764.76l9.01-20.18c1.52-3.41,4.9-5.6,8.63-5.6h204.77c3.73,0,7.11,2.19,8.63,5.6l9.01,20.18c2.79,6.25-1.78,13.31-8.63,13.31h-222.79c-6.85,0-11.42-7.05-8.63-13.31Z"/>
  <circle cx="338.35" cy="355.88" r="46.36"/>
  <circle class="cls-1" cx="736.63" cy="658.73" r="37.58"/>
  <circle cx="736.63" cy="658.73" r="28.72"/>
</svg>