<?xml version="1.0" encoding="UTF-8"?>
<svg id="Camada_1" data-name="Camada 1" xmlns="http://www.w3.org/2000/svg" viewBox="0 0 1080 1080">
  <defs>
    <style>
      .cls-1 {
        fill: #fff;
      }
    </style>
  </defs>
  <g>
    <g>
      <g>
        <path d="M406.23,572.64h54.94c2.07,0,3.75,1.68,3.75,3.75v59.27c0,2.07-1.68,3.75-3.75,3.75h-54.94c-15.34,0-27.77-14.95-27.77-33.38,0-9.22,3.11-17.56,8.13-23.61,5.03-6.05,11.97-9.78,19.64-9.78Z"/>
        <path d="M461.17,642.07h-54.94c-16.78,0-30.43-16.17-30.43-36.04,0-9.53,3.1-18.52,8.74-25.3,5.76-6.93,13.46-10.74,21.68-10.74h54.94c3.53,0,6.41,2.88,6.41,6.41v59.27c0,3.53-2.87,6.41-6.41,6.41ZM406.23,575.29c-6.62,0-12.87,3.13-17.6,8.83-4.85,5.83-7.52,13.62-7.52,21.91,0,16.95,11.27,30.73,25.12,30.73h54.94c.61,0,1.1-.49,1.1-1.1v-59.27c0-.61-.49-1.1-1.1-1.1h-54.94Z"/>
      </g>
      <g>
        <path class="cls-1" d="M475.82,597.39v-20.52c0-2.17,1.76-3.92,3.92-3.92h54.24c15.2,0,27.52,14.82,27.52,33.09,0,18.26-12.32,33.08-27.52,33.08h-58.16"/>
        <path d="M533.98,641.88h-58.16c-1.53,0-2.77-1.24-2.77-2.77s1.24-2.77,2.77-2.77h58.16c13.65,0,24.75-13.6,24.75-30.31s-11.1-30.32-24.75-30.32h-54.24c-.63,0-1.15.52-1.15,1.15v20.52c0,1.53-1.24,2.77-2.77,2.77s-2.77-1.24-2.77-2.77v-20.52c0-3.69,3-6.69,6.69-6.69h54.24c16.7,0,30.29,16.09,30.29,35.86s-13.59,35.85-30.29,35.85Z"/>
      </g>
    </g>
    <g>
      <circle cx="475.82" cy="606.03" r="17.82"/>
      <path class="cls-1" d="M475.82,626.64c-11.36,0-20.61-9.24-20.61-20.61s9.25-20.61,20.61-20.61,20.61,9.25,20.61,20.61-9.24,20.61-20.61,20.61ZM475.82,591.01c-8.28,0-15.02,6.74-15.02,15.02s6.74,15.02,15.02,15.02,15.02-6.74,15.02-15.02-6.74-15.02-15.02-15.02Z"/>
    </g>
    <g>
      <circle cx="552.48" cy="631.74" r="10.45"/>
      <path class="cls-1" d="M552.48,643.83c-6.67,0-12.09-5.42-12.09-12.09s5.42-12.09,12.09-12.09,12.09,5.42,12.09,12.09-5.42,12.09-12.09,12.09ZM552.48,622.93c-4.86,0-8.81,3.95-8.81,8.81s3.95,8.81,8.81,8.81,8.81-3.95,8.81-8.81-3.95-8.81-8.81-8.81Z"/>
    </g>
  </g>
  <g>
    <g>
      <path d="M682.17,577.53c2.37-61.93-76.39-112.86-123.59-61.21-43.99,48.13-.88,132.42,63.46,126.87,34.09-2.94,58.73-32.23,60.13-65.66h0Z"/>
      <path d="M616.22,646.33c-28.68,0-55.49-17.5-69.49-45.89-14.91-30.23-11.18-63.21,9.71-86.07,20.11-22,47.57-28.08,75.32-16.7,15.14,6.21,28.81,17.32,38.5,31.27,10.33,14.88,15.44,31.71,14.79,48.7h0c-1.51,36.06-28.5,65.47-62.77,68.43-2.03.17-4.05.26-6.06.26ZM604.7,497.87c-16.39,0-31.69,6.94-43.99,20.39-23.02,25.18-19.63,57.64-8.8,79.62,13.92,28.23,41.35,44.88,69.87,42.43,31.38-2.7,56.1-29.74,57.5-62.9,1.18-30.81-19.72-62.1-49.71-74.4-8.4-3.45-16.77-5.15-24.88-5.15Z"/>
    </g>
    <g>
      <path class="cls-1" d="M691.79,571.7c2.41-62.6-77.2-114.02-124.89-61.85-44.46,48.64-.9,133.81,64.12,128.2,34.45-2.97,59.35-32.57,60.78-66.35h0Z"/>
      <path d="M625.14,641.31c-29.01,0-56.13-17.7-70.29-46.41-15.08-30.58-11.31-63.94,9.83-87.07,20.35-22.26,48.13-28.42,76.23-16.89,15.31,6.28,29.13,17.51,38.93,31.62,10.44,15.04,15.61,32.07,14.95,49.25h0c-1.54,36.48-28.84,66.24-63.52,69.23-2.05.18-4.1.26-6.14.26ZM613.51,491.29c-16.54,0-31.99,7-44.4,20.58-23.23,25.42-19.82,58.18-8.88,80.36,14.05,28.5,41.74,45.3,70.53,42.82,31.67-2.73,56.62-30.03,58.04-63.49,1.19-31.09-19.9-62.67-50.16-75.09-8.48-3.48-16.94-5.2-25.12-5.2Z"/>
    </g>
    <path d="M686,572.02s-.03,0-.04,0c-.55-.02-.98-.49-.96-1.04,1.08-28.24-16.31-55.95-43.3-68.96-.5-.24-.71-.84-.47-1.33.24-.5.83-.71,1.33-.47,27.69,13.35,45.54,41.82,44.43,70.84-.02.54-.46.96-1,.96Z"/>
    <path d="M624.59,633.23c-12.8,0-25.22-3.77-36.23-11.06-28.31-18.71-41.72-55.83-31.2-86.34.18-.52.75-.8,1.27-.62.52.18.8.75.62,1.27-10.23,29.67,2.85,65.79,30.42,84.02,12.24,8.1,26.28,11.72,40.6,10.49.56-.06,1.03.36,1.08.91s-.36,1.04-.91,1.08c-1.88.16-3.77.24-5.64.24Z"/>
    <g>
      <line class="cls-1" x1="664.23" y1="616.9" x2="566.42" y2="519.08"/>
      <path d="M664.23,617.9c-.26,0-.51-.1-.71-.29l-97.82-97.82c-.39-.39-.39-1.02,0-1.41s1.02-.39,1.41,0l97.82,97.82c.39.39.39,1.02,0,1.41-.2.2-.45.29-.71.29Z"/>
    </g>
    <g>
      <line class="cls-1" x1="660.01" y1="593.72" x2="620.32" y2="554.03"/>
      <path d="M660.01,593.88s-.08-.02-.11-.05l-39.69-39.69c-.06-.06-.06-.16,0-.22.06-.06.16-.06.22,0l39.69,39.69c.06.06.06.16,0,.22-.03.03-.07.05-.11.05Z"/>
    </g>
    <g>
      <line class="cls-1" x1="675.67" y1="605.34" x2="577.85" y2="507.53"/>
      <path d="M675.67,606.34c-.26,0-.51-.1-.71-.29l-97.82-97.82c-.39-.39-.39-1.02,0-1.41s1.02-.39,1.41,0l97.82,97.82c.39.39.39,1.02,0,1.41-.2.2-.45.29-.71.29Z"/>
    </g>
    <g>
      <path d="M650.14,502.06c.27-7.01-8.65-12.77-13.99-6.93-4.98,5.45-.1,14.99,7.18,14.36,3.86-.33,6.65-3.65,6.81-7.43h0Z"/>
      <path class="cls-1" d="M642.67,510.02c-3.31,0-6.4-2.02-8.02-5.29-1.72-3.49-1.29-7.29,1.13-9.93,2.29-2.51,5.56-3.23,8.72-1.93,3.76,1.54,6.29,5.33,6.14,9.22h0c-.18,4.17-3.3,7.57-7.26,7.91-.23.02-.47.03-.7.03ZM641.38,493.22c-1.81,0-3.5.77-4.86,2.25-2.55,2.79-2.17,6.38-.97,8.82,1.54,3.13,4.57,4.97,7.74,4.71,3.47-.3,6.2-3.29,6.35-6.95.13-3.42-2.19-6.89-5.52-8.25-.93-.38-1.85-.57-2.75-.57Z"/>
    </g>
    <g>
      <path d="M641.31,631.44c.44-11.37-14.02-20.71-22.69-11.23-8.08,8.84-.16,24.31,11.65,23.29,6.26-.54,10.78-5.92,11.04-12.05h0Z"/>
      <path class="cls-1" d="M629.2,644.35c-5.37,0-10.39-3.27-13.01-8.58-2.79-5.65-2.09-11.83,1.83-16.11,3.72-4.07,9.01-5.24,14.15-3.13,6.1,2.5,10.19,8.65,9.95,14.95h0c-.29,6.76-5.35,12.28-11.78,12.83-.38.03-.76.05-1.14.05ZM627.1,617.1c-2.93,0-5.67,1.24-7.88,3.65-4.13,4.52-3.52,10.35-1.57,14.3,2.5,5.08,7.43,8.06,12.55,7.63,5.62-.49,10.05-5.33,10.3-11.28.21-5.54-3.55-11.17-8.95-13.38-1.5-.62-3-.92-4.46-.92Z"/>
    </g>
  </g>
</svg>