<?xml version="1.0" encoding="UTF-8"?>
<svg id="Camada_1" data-name="Camada 1" xmlns="http://www.w3.org/2000/svg" viewBox="0 0 1080 1080">
  <path d="M664.38,370.34c-.43,0-.86-.12-1.24-.35l-48.25-29.85c-1.1-.68-1.44-2.13-.76-3.23l69.65-112.57c.33-.53.85-.91,1.46-1.05.61-.14,1.24-.04,1.77.29l48.25,29.85c1.1.68,1.44,2.13.76,3.23l-69.65,112.57c-.33.53-.85.91-1.46,1.05-.18.04-.36.06-.54.06ZM619.36,337.38l44.25,27.38,67.18-108.58-44.25-27.38-67.18,108.58Z"/>
  <path d="M492.82,634.14c-4.52,0-8.94-1.26-12.82-3.66l-16.45-10.18c-4.13-2.56-7.38-6.24-9.39-10.65-3.4-7.47-2.86-16.08,1.45-23.04l152-245.68c3.44-5.56,8.84-9.44,15.2-10.94,6.36-1.5,12.93-.43,18.49,3.01l16.45,10.18c11.48,7.1,15.04,22.21,7.94,33.68h0l-152,245.68c-4.36,7.05-11.92,11.38-20.2,11.59-.22,0-.45,0-.67,0ZM628.45,334.22c-1.51,0-3.02.17-4.52.53-5.09,1.2-9.41,4.31-12.17,8.76l-152,245.68c-3.45,5.58-3.88,12.47-1.16,18.45,1.61,3.53,4.21,6.47,7.51,8.52l16.45,10.18c3.26,2.02,7.02,3.03,10.79,2.92,6.64-.16,12.68-3.63,16.18-9.27l152-245.68,2.08,1.28-2.08-1.28c5.68-9.18,2.83-21.28-6.36-26.96l-16.45-10.18c-3.14-1.94-6.68-2.94-10.28-2.94Z"/>
  <path d="M453.59,679.12c-4.28,0-8.59-1.21-12.54-3.65-8.58-5.31-12.72-14.76-10.81-24.66.05-.25.14-.5.26-.73l23.74-42.62c.45-.8,1.29-1.27,2.23-1.25.92.04,1.74.59,2.12,1.43,1.61,3.53,4.21,6.48,7.52,8.52l16.45,10.18c3.26,2.02,7.02,3.03,10.79,2.92.9,0,1.76.46,2.2,1.26s.4,1.78-.1,2.53l-26.96,40.5c-.15.22-.33.42-.55.59-4.33,3.31-9.33,4.98-14.36,4.98ZM434.96,652.11c-1.61,9.21,3.39,15.95,8.66,19.21,5.26,3.26,13.52,4.72,21.04-.82l24.4-36.65c-3.19-.5-6.27-1.64-9.06-3.37l-16.45-10.18c-2.83-1.75-5.24-4.03-7.13-6.71l-21.45,38.51Z"/>
  <path d="M320.24,872.76c-.44,0-.88-.12-1.28-.37-1.15-.71-1.5-2.21-.79-3.36l121.91-197.04c.71-1.15,2.21-1.5,3.36-.79,1.15.71,1.5,2.21.79,3.36l-121.91,197.04c-.46.75-1.26,1.16-2.08,1.16Z"/>
  <rect x="560.39" y="335.52" width="166.09" height="24.83" rx="12.41" ry="12.41" transform="translate(279.32 -286.48) rotate(31.74)"/>
  <path d="M759.85,273.75c-.42,0-.85-.11-1.23-.35l-99.9-61.81c-1.1-.68-1.44-2.13-.76-3.23.68-1.1,2.13-1.44,3.23-.76l99.9,61.81c1.1.68,1.44,2.13.76,3.23-.44.72-1.21,1.11-2,1.11Z"/>
  <rect x="550.79" y="435.73" width="63.42" height="21.38" transform="translate(322.02 -239.69) rotate(31.74)"/>
  <path d="M523.76,585.1c-.44,0-.88-.12-1.28-.37l-18.48-11.43c-1.15-.71-1.5-2.21-.79-3.36.71-1.15,2.21-1.5,3.36-.79l18.48,11.43c1.15.71,1.5,2.21.79,3.36-.46.75-1.26,1.16-2.08,1.16Z"/>
  <path d="M539.66,559.4c-.44,0-.88-.12-1.28-.37l-18.48-11.43c-1.15-.71-1.5-2.21-.79-3.36s2.21-1.5,3.36-.79l18.48,11.43c1.15.71,1.5,2.21.79,3.36-.46.75-1.26,1.16-2.08,1.16Z"/>
  <path d="M555.56,533.71c-.44,0-.88-.12-1.28-.37l-18.48-11.43c-1.15-.71-1.5-2.21-.79-3.36s2.21-1.5,3.36-.79l18.48,11.43c1.15.71,1.5,2.21.79,3.36-.46.75-1.26,1.16-2.08,1.16Z"/>
  <path d="M571.46,508.01c-.44,0-.88-.12-1.28-.37l-18.48-11.43c-1.15-.71-1.5-2.21-.79-3.36s2.21-1.5,3.36-.79l18.48,11.43c1.15.71,1.5,2.21.79,3.36-.46.75-1.26,1.16-2.08,1.16Z"/>
</svg>