<?xml version="1.0" encoding="UTF-8"?>
<svg id="Camada_1" data-name="Camada 1" xmlns="http://www.w3.org/2000/svg" viewBox="0 0 1080 1080">
  <defs>
    <style>
      .cls-1 {
        fill: #fff;
      }
    </style>
  </defs>
  <path d="M540,773.02c-29.51,0-53.52-24.01-53.52-53.52v-409.52c0-1.66,1.34-3,3-3s3,1.34,3,3v409.52c0,26.2,21.32,47.52,47.52,47.52s47.52-21.32,47.52-47.52v-409.52c0-1.66,1.34-3,3-3s3,1.34,3,3v409.52c0,29.51-24.01,53.52-53.52,53.52Z"/>
  <path d="M493.52,277.99h92.96c3.87,0,7.01,3.14,7.01,7.01v11.55c0,1.33-1.08,2.41-2.41,2.41h-102.16c-1.33,0-2.41-1.08-2.41-2.41v-11.55c0-3.87,3.14-7.01,7.01-7.01Z"/>
  <path d="M504.69,298.96h70.62v7.78c0,3.34-2.72,6.06-6.06,6.06h-58.5c-3.34,0-6.06-2.72-6.06-6.06v-7.78h0Z"/>
  <g>
    <circle cx="486.51" cy="585.93" r="80.46"/>
    <path class="cls-1" d="M486.51,669.39c-46.02,0-83.46-37.44-83.46-83.46s37.44-83.46,83.46-83.46,83.46,37.44,83.46,83.46-37.44,83.46-83.46,83.46ZM486.51,508.46c-42.71,0-77.46,34.75-77.46,77.46s34.75,77.46,77.46,77.46,77.46-34.75,77.46-77.46-34.75-77.46-77.46-77.46Z"/>
  </g>
  <path d="M575.31,383.66h-35.31c-1.66,0-3-1.34-3-3s1.34-3,3-3h35.31c1.66,0,3,1.34,3,3s-1.34,3-3,3Z"/>
  <path d="M575.31,430.4h-35.31c-1.66,0-3-1.34-3-3s1.34-3,3-3h35.31c1.66,0,3,1.34,3,3s-1.34,3-3,3Z"/>
  <path d="M575.31,477.14h-35.31c-1.66,0-3-1.34-3-3s1.34-3,3-3h35.31c1.66,0,3,1.34,3,3s-1.34,3-3,3Z"/>
  <path d="M575.31,523.87h-35.31c-1.66,0-3-1.34-3-3s1.34-3,3-3h35.31c1.66,0,3,1.34,3,3s-1.34,3-3,3Z"/>
  <g>
    <circle cx="590.34" cy="380.66" r="21.22"/>
    <path class="cls-1" d="M590.34,404.88c-13.36,0-24.22-10.87-24.22-24.22s10.87-24.22,24.22-24.22,24.22,10.87,24.22,24.22-10.87,24.22-24.22,24.22ZM590.34,362.44c-10.05,0-18.22,8.17-18.22,18.22s8.17,18.22,18.22,18.22,18.22-8.17,18.22-18.22-8.17-18.22-18.22-18.22Z"/>
  </g>
</svg>