<?xml version="1.0" encoding="UTF-8"?>
<svg id="Camada_1" data-name="Camada 1" xmlns="http://www.w3.org/2000/svg" viewBox="0 0 1080 1080">
  <defs>
    <style>
      .cls-1 {
        fill: #fff;
      }
    </style>
  </defs>
  <g>
    <path d="M682.05,792.08h-284.09v-2c0-17.37,14.13-31.49,31.49-31.49h221.11c17.37,0,31.49,14.13,31.49,31.49v2ZM402.02,788.08h275.95c-1.03-14.23-12.93-25.49-27.42-25.49h-221.11c-14.49,0-26.39,11.26-27.42,25.49Z"/>
    <path d="M615.77,762.58h-151.54v-2c0-17.37,14.13-31.5,31.5-31.5h88.55c17.37,0,31.5,14.13,31.5,31.5v2ZM468.3,758.58h143.4c-1.03-14.23-12.93-25.5-27.42-25.5h-88.55c-14.49,0-26.39,11.26-27.42,25.5Z"/>
    <g>
      <path d="M640.22,455.99c.08.03.16.07.25.11,1.89.79,3.75,1.61,5.56,2.47h0c61.97,29.19,77.85,94,53.53,160.59-20.87,57.16-76.06,91.84-133.78,89.26-11.58-.51-23.26-2.54-34.78-6.16-3.19-1.01-4.92-4.46-3.77-7.61l5.87-16.09c1.07-2.91,4.23-4.5,7.19-3.59,6.48,2,13.01,3.34,19.54,4.08,48.01,5.4,95.39-22.43,112.67-69.77,17.98-49.25-1.14-100.21-44.5-125.42-2.84-1.65-5.78-3.19-8.82-4.62-1.23-.58-2.49-1.14-3.76-1.67"/>
      <path d="M499.03,597.5c-1.49,0-3-.38-4.38-1.17l-21.3-12.3c-4.2-2.44-5.65-7.83-3.22-12.03l4.26-7.39c-12.38-17.05-13.6-39.65-3.02-57.97l8.78-15.22-.12-.07,87.82-152.12c9.49-16.44,27.2-26.66,46.2-26.66,2.33,0,4.66.15,6.9.45l-.53,3.96c-2.07-.28-4.21-.42-6.37-.42-17.58,0-33.96,9.45-42.74,24.66l-85.82,148.64.11.07-10.79,18.69c-9.99,17.3-8.6,38.73,3.54,54.61l.81,1.06-5.59,9.69c-1.33,2.29-.54,5.24,1.76,6.57l21.3,12.29c2.3,1.32,5.24.53,6.57-1.76l5.38-9.32,1.35.21c20.29,3.16,40.02-6.3,50.28-24.06l49.2-85.23,3.47,1.99-3.48,6.02-45.73,79.21c-10.86,18.81-31.55,28.99-52.99,26.21l-4.02,6.96c-1.63,2.82-4.6,4.4-7.65,4.4Z"/>
      <path d="M631.06,443.23l-3.47-2,18.45-31.94-.12-.07,10.79-18.69c8.83-15.29,8.77-34.27-.13-49.53l3.46-2.02c9.63,16.5,9.69,37.02.14,53.55l-8.78,15.22.12.07-20.45,35.42Z"/>
      <path class="cls-1" d="M613.14,437.53c2.43-.89,5.74.24,8.19.15s5.29-1.74,7.68-1.05,3.88,3.55,5.96,4.95,5.27,1.65,6.84,3.66,1.02,5.09,1.91,7.51,3.29,4.53,3.38,6.98-2.19,4.81-2.87,7.2.03,5.54-1.37,7.63-4.55,2.58-6.55,4.15-3.17,4.48-5.59,5.36-5.28-.58-7.73-.49-5.29,1.74-7.68,1.05-3.88-3.55-5.96-4.95-5.27-1.65-6.84-3.66-.99-4.52-1.87-6.95c.76-3.3-.45-3.72.97-6.79s3.24-2.23,4.67-5.3-.39-3.91,1.04-6.99,3.8-2.19,4.73-5.45c.97-3.45-.94-4.31,1.1-7.02Z"/>
      <path d="M617.49,481.83c-.44,0-.88-.05-1.34-.18-1.73-.5-2.82-1.9-3.71-3.04-.47-.6-.95-1.22-1.38-1.51-.41-.28-1.16-.49-1.88-.69-1.39-.39-3.12-.87-4.24-2.31-1.08-1.38-1.14-3.07-1.2-4.56-.03-.78-.06-1.59-.25-2.11-.38-1.04.16-2.19,1.19-2.56,1.03-.38,2.18.15,2.57,1.19.41,1.11.45,2.3.49,3.34.03.88.07,1.88.35,2.23.31.4,1.3.68,2.17.92.98.27,2.09.59,3.04,1.22.96.64,1.67,1.56,2.3,2.37.55.71,1.18,1.51,1.65,1.65.46.13,1.41-.22,2.25-.52.97-.35,2.06-.76,3.22-.8,1.14-.04,2.22.28,3.18.56.92.27,1.87.55,2.38.36.5-.18,1.05-1.01,1.58-1.81.56-.84,1.19-1.79,2.07-2.48.92-.72,2.01-1.12,2.98-1.47.84-.31,1.79-.65,2.05-1.05.27-.41.24-1.43.2-2.32-.04-1.02-.08-2.18.23-3.29.31-1.1.96-2.05,1.53-2.89.51-.75,1.09-1.6,1.07-2.1-.02-.46-.63-1.24-1.18-1.93-.64-.82-1.37-1.75-1.78-2.86s-.45-2.3-.49-3.34c-.03-.88-.07-1.88-.35-2.23-.31-.4-1.3-.68-2.17-.92-.98-.27-2.09-.59-3.04-1.22-.96-.64-1.67-1.56-2.3-2.37-.55-.71-1.18-1.51-1.65-1.65-.45-.13-1.41.22-2.25.52-.97.35-2.06.76-3.23.8-1.11.05-2.22-.28-3.18-.56-.92-.27-1.87-.54-2.37-.36-1.04.38-2.19-.15-2.57-1.19-.38-1.04.16-2.19,1.19-2.56,1.73-.63,3.47-.13,4.86.28.71.21,1.45.42,1.92.4.53-.02,1.27-.29,1.99-.56,1.41-.52,3.01-1.1,4.72-.61,1.73.49,2.82,1.9,3.71,3.04.47.6.95,1.22,1.38,1.51.41.28,1.16.49,1.88.69,1.39.39,3.12.88,4.24,2.31,1.08,1.38,1.14,3.07,1.19,4.56.03.78.06,1.59.25,2.11.19.52.69,1.15,1.17,1.77.92,1.17,1.96,2.5,2.03,4.26.07,1.82-.95,3.3-1.76,4.5-.42.62-.86,1.26-1,1.74-.14.49-.11,1.28-.08,2.04.06,1.43.12,3.22-.88,4.71-.99,1.48-2.59,2.06-4.01,2.58-.72.26-1.47.53-1.88.86-.38.29-.8.93-1.21,1.54-.8,1.21-1.81,2.72-3.54,3.35-1.73.64-3.47.13-4.87-.28-.71-.21-1.44-.41-1.92-.4-.53.02-1.27.29-1.99.56-1.04.38-2.18.8-3.39.8Z"/>
      <path d="M529,688.52c-.46,0-.93-.16-1.3-.49l-32.71-28.19c-.84-.72-.93-1.98-.21-2.82.72-.84,1.98-.93,2.82-.21l32.71,28.19c.84.72.93,1.98.21,2.82-.4.46-.95.69-1.52.69Z"/>
      <path d="M526.45,692.82c-.29,0-.59-.06-.87-.2l-66.96-32.49c-.99-.48-1.41-1.68-.93-2.67.48-1,1.68-1.41,2.67-.93l66.96,32.49c.99.48,1.41,1.68.93,2.67-.35.71-1.06,1.13-1.8,1.13Z"/>
      <path d="M436.7,668.5c-8.55,0-18.61-1.69-29.07-5.18-12.2-4.07-23.01-10-30.43-16.67-7.85-7.06-11.07-14.26-9.06-20.26,2-6,8.9-9.82,19.42-10.75,9.94-.89,22.14.88,34.34,4.95,26.14,8.73,43.49,24.95,39.49,36.94h0c-2.4,7.19-11.86,10.98-24.69,10.98ZM392.8,619.4c-1.68,0-3.32.07-4.89.21-8.71.77-14.53,3.7-15.98,8.04-1.45,4.34,1.45,10.18,7.94,16.02,7.02,6.32,17.33,11.95,29.02,15.85,23.22,7.75,45.52,6.25,48.7-3.28,3.18-9.53-13.75-24.12-36.96-31.87-9.74-3.25-19.43-4.97-27.84-4.97ZM459.5,656.88h0,0Z"/>
      <path d="M440.1,661.31c-8.84,0-18.98-1.79-29.13-5.17-26.14-8.73-43.49-24.95-39.49-36.94,4-11.98,27.62-14.54,53.76-5.81,12.2,4.07,23.01,10,30.43,16.67,7.85,7.06,11.07,14.26,9.06,20.26-2,6-8.9,9.82-19.42,10.76-1.68.15-3.42.22-5.22.22ZM395.91,612.23c-10.83,0-18.83,2.82-20.64,8.24-3.18,9.53,13.75,24.12,36.96,31.87,11.69,3.9,23.31,5.6,32.72,4.76,8.71-.77,14.53-3.7,15.98-8.04h0c1.45-4.34-1.45-10.18-7.94-16.02-7.02-6.32-17.33-11.95-29.02-15.85-10.01-3.34-19.85-4.96-28.06-4.96Z"/>
      <path d="M489.93,661.21c-7.55,0-17.81-3.91-27.93-11.18-.9-.64-1.1-1.89-.46-2.79.64-.9,1.89-1.1,2.79-.46,15.29,10.98,28.62,12.75,32.2,8.08.68-.88,1.04-2,1.09-3.33.29-7.15-7.61-18.36-19.22-27.26-11.6-8.9-24.46-13.64-31.29-11.51-1.29.4-2.29,1.04-2.97,1.93-1.62,2.12-1.15,5.26-.46,7.52.32,1.06-.28,2.17-1.33,2.5-1.06.32-2.17-.28-2.5-1.33-1.37-4.53-.99-8.38,1.12-11.12,1.21-1.56,2.87-2.67,4.96-3.31,8.11-2.52,22.14,2.37,34.9,12.16,12.78,9.8,21.13,22.09,20.78,30.58-.07,2.17-.71,4.06-1.91,5.62-2.03,2.65-5.46,3.92-9.78,3.92Z"/>
      <path d="M495.39,654.16c-2.11,0-4.46-.31-7-.95-7.26-1.81-15.46-6.02-23.09-11.88-7.63-5.86-13.83-12.68-17.46-19.23-3.9-7.05-4.4-13.08-1.41-16.98s8.95-4.98,16.77-3.03c7.26,1.8,15.46,6.02,23.09,11.88,16.47,12.63,24.75,28.54,18.87,36.21-2.02,2.63-5.39,3.98-9.77,3.98ZM456.19,605.15c-3.07,0-5.36.82-6.59,2.42-1.94,2.52-1.3,7.12,1.74,12.61,3.36,6.07,9.18,12.46,16.39,17.99,7.21,5.53,14.89,9.5,21.62,11.17,6.09,1.52,10.69.94,12.63-1.59,3.81-4.97-2.7-18.76-18.13-30.6-7.21-5.53-14.89-9.5-21.62-11.17-2.23-.55-4.26-.83-6.04-.83Z"/>
      <g>
        <rect class="cls-1" x="522.88" y="672.42" width="42.9" height="95.26" rx="21.45" ry="21.45"/>
        <path d="M544.33,769.69c-12.93,0-23.45-10.52-23.45-23.45v-52.36c0-12.93,10.52-23.45,23.45-23.45s23.45,10.52,23.45,23.45v52.36c0,12.93-10.52,23.45-23.45,23.45ZM544.33,674.42c-10.73,0-19.45,8.73-19.45,19.45v52.36c0,10.73,8.73,19.45,19.45,19.45s19.45-8.73,19.45-19.45v-52.36c0-10.73-8.73-19.45-19.45-19.45Z"/>
      </g>
    </g>
    <path d="M499.74,587.66c-.62,0-1.23-.28-1.62-.82-2.06-2.82-4.74-5.24-7.75-6.99-3.03-1.77-6.48-2.91-9.97-3.3-1.1-.12-1.89-1.11-1.76-2.21.12-1.1,1.12-1.89,2.21-1.76,4.04.46,8.03,1.78,11.54,3.82,3.49,2.03,6.59,4.83,8.97,8.09.65.89.46,2.14-.44,2.79-.36.26-.77.38-1.18.38Z"/>
    <path d="M495.64,502.72c-.34,0-.68-.09-1-.27-.96-.55-1.29-1.77-.73-2.73l86.7-150.44c.55-.96,1.77-1.29,2.73-.73.96.55,1.29,1.77.73,2.73l-86.7,150.44c-.37.64-1.04,1-1.73,1Z"/>
    <path d="M642.28,366.32c-.38,0-.76-.11-1.1-.33-.92-.61-1.18-1.85-.57-2.77l30.81-46.78c-5.13-.66-11.73-2.37-18.42-6.45-7.9-4.82-12.9-11.04-15.94-16.19l-30.82,46.79c-.61.92-1.85,1.18-2.77.57-.92-.61-1.18-1.85-.57-2.77l32.65-49.57c.39-.6,1.07-.94,1.79-.9.71.04,1.35.46,1.67,1.1,2.53,5.08,7.38,12.25,16.07,17.55,7.57,4.61,15.03,5.91,19.95,6.18.71.04,1.35.46,1.68,1.1.32.64.28,1.4-.12,2l-32.65,49.57c-.38.58-1.02.9-1.67.9Z"/>
    <path d="M529.86,583.55c-2.98,5.53-10.15,7.1-15.2,3.36-6.59-4.88-14.41-9.96-23.5-14.69-7.29-3.79-14.26-6.76-20.69-9.11-5.89-2.15-8.51-9.01-5.54-14.53.03-.06.06-.12.1-.18,2.21-4.1,6.89-6.21,11.42-5.13,7.72,1.84,17.19,4.95,27.26,10.33,10.34,5.53,18.35,11.86,24.24,17.4,3.39,3.19,4.22,8.26,2.01,12.36l-.1.18Z"/>
    <path d="M588.59,533.81c-5.07,9.42-17.29,12.09-25.88,5.72-11.23-8.32-24.55-16.97-40.03-25.02-12.41-6.45-24.3-11.52-35.25-15.52-10.03-3.66-14.5-15.34-9.43-24.75.05-.1.11-.2.16-.3,3.76-6.98,11.74-10.57,19.45-8.74,13.16,3.13,29.28,8.43,46.44,17.6,17.61,9.41,31.25,20.21,41.29,29.64,5.78,5.43,7.19,14.07,3.42,21.06l-.16.3Z"/>
  </g>
  <circle cx="641.02" cy="760.58" r="19.22"/>
  <circle cx="604.58" cy="339.49" r="19.22"/>
  <g>
    <circle cx="544.33" cy="690.82" r="31.68"/>
    <path class="cls-1" d="M544.33,725c-18.84,0-34.17-15.33-34.17-34.17s15.33-34.17,34.17-34.17,34.17,15.33,34.17,34.17-15.33,34.17-34.17,34.17ZM544.33,661.65c-16.09,0-29.17,13.09-29.17,29.17s13.09,29.17,29.17,29.17,29.17-13.09,29.17-29.17-13.09-29.17-29.17-29.17Z"/>
  </g>
  <circle cx="674.93" cy="314.58" r="6.47"/>
</svg>