<?xml version="1.0" encoding="UTF-8"?>
<svg id="Camada_1" data-name="Camada 1" xmlns="http://www.w3.org/2000/svg" viewBox="0 0 1080 1080">
  <defs>
    <style>
      .cls-1 {
        fill: #fff;
      }
    </style>
  </defs>
  <path d="M536.47,694.61h-23.36c-10.85,0-19.67-8.82-19.67-19.67v-66.5s10-221.94,10-221.94c.04-10.81,8.85-19.6,19.67-19.6,1.66,0,3,1.34,3,3s-1.34,3-3,3c-7.54,0-13.67,6.13-13.67,13.67v.14s-10,221.94-10,221.94v66.3c0,7.54,6.13,13.67,13.67,13.67h23.36c7.54,0,13.67-6.13,13.67-13.67v-65.92l-5.52-206.3c-.04-1.66,1.26-3.03,2.92-3.08,1.68-.04,3.03,1.26,3.08,2.92l5.52,206.38v66c0,10.85-8.82,19.67-19.67,19.67Z"/>
  <path d="M451.16,654.28c-2.22,0-4.3-.65-6.19-1.24-1.17-.36-2.27-.71-3.28-.86-.99-.16-2.13-.17-3.33-.18-2.47-.02-5.26-.05-7.85-1.37-2.49-1.27-4.15-3.48-5.6-5.42-.75-1-1.46-1.95-2.22-2.71-.76-.76-1.71-1.47-2.71-2.22-1.95-1.46-4.15-3.11-5.43-5.6-1.32-2.59-1.35-5.39-1.37-7.85-.01-1.2-.02-2.34-.18-3.33-.16-1.01-.5-2.11-.86-3.28-.73-2.34-1.56-5-1.11-7.83.44-2.81,2.04-5.08,3.46-7.08.71-1,1.38-1.95,1.85-2.88.44-.87.8-1.93,1.17-3.05.79-2.35,1.68-5.01,3.77-7.1,2.09-2.09,4.75-2.98,7.1-3.77,1.12-.38,2.18-.73,3.05-1.17.93-.47,1.88-1.14,2.88-1.85,2-1.41,4.27-3.01,7.08-3.46,2.83-.44,5.49.38,7.83,1.11,1.17.36,2.27.71,3.28.86.99.16,2.13.17,3.33.18,2.47.02,5.26.05,7.85,1.37,2.49,1.27,4.15,3.48,5.6,5.43.75,1,1.46,1.95,2.22,2.71,1.17,1.17,1.17,3.07,0,4.24-1.17,1.17-3.07,1.17-4.24,0-1.07-1.07-1.94-2.23-2.78-3.36-1.17-1.56-2.27-3.04-3.52-3.67-1.33-.68-3.21-.7-5.19-.72-1.37-.01-2.78-.03-4.2-.25-1.44-.23-2.81-.65-4.13-1.06-1.88-.59-3.67-1.14-5.12-.91-1.43.22-2.95,1.3-4.56,2.43-1.13.8-2.3,1.62-3.62,2.29-1.26.64-2.59,1.09-3.87,1.52-1.89.63-3.67,1.23-4.76,2.32s-1.69,2.87-2.32,4.76c-.43,1.28-.87,2.61-1.52,3.87-.67,1.31-1.5,2.48-2.29,3.62-1.13,1.61-2.21,3.13-2.43,4.56-.23,1.45.33,3.23.91,5.12.41,1.32.84,2.68,1.06,4.13.22,1.42.24,2.84.25,4.21.02,1.98.04,3.85.72,5.19.64,1.25,2.11,2.36,3.68,3.52,1.13.84,2.29,1.72,3.36,2.78,1.07,1.07,1.94,2.23,2.78,3.36,1.17,1.56,2.27,3.04,3.52,3.67,1.33.68,3.2.7,5.18.72,1.37.01,2.78.03,4.21.25,1.44.23,2.81.65,4.13,1.06,1.88.59,3.67,1.14,5.11.91,1.43-.22,2.95-1.3,4.56-2.43,1.13-.8,2.3-1.62,3.61-2.29,1.26-.64,2.59-1.09,3.87-1.52,1.89-.63,3.67-1.23,4.76-2.32,1.17-1.17,3.07-1.17,4.24,0,1.17,1.17,1.17,3.07,0,4.24-2.09,2.09-4.75,2.98-7.1,3.77-1.12.38-2.18.73-3.05,1.17-.93.47-1.88,1.14-2.88,1.85-2,1.41-4.27,3.01-7.08,3.46-.55.09-1.1.12-1.64.12Z"/>
  <g>
    <path d="M536.46,516.4h0c8.32,0,15.08,6.76,15.08,15.08v181.11c0,3.97-3.22,7.2-7.2,7.2h-7.88c-8.32,0-15.08-6.76-15.08-15.08v-173.23c0-8.32,6.76-15.08,15.08-15.08Z" transform="translate(-81.63 1154.55) rotate(-90)"/>
    <path class="cls-1" d="M623.07,636.17h-173.23c-9.97,0-18.08-8.11-18.08-18.08s8.11-18.08,18.08-18.08h181.11c5.62,0,10.2,4.57,10.2,10.2v7.88c0,9.97-8.11,18.08-18.08,18.08ZM449.85,606.01c-6.66,0-12.08,5.42-12.08,12.08s5.42,12.08,12.08,12.08h173.23c6.66,0,12.08-5.42,12.08-12.08v-7.88c0-2.31-1.88-4.2-4.2-4.2h-181.11Z"/>
  </g>
  <g>
    <path class="cls-1" d="M448.49,675.82h196.57c1.09,0,2.13.46,2.86,1.27l23.03,25.48c2.24,2.48.48,6.44-2.86,6.44h-281.27"/>
    <path d="M668.09,712h-281.27c-1.66,0-3-1.34-3-3s1.34-3,3-3h281.27c.46,0,.68-.28.78-.51.1-.23.16-.58-.15-.92l-23.03-25.48c-.16-.18-.39-.28-.63-.28h-196.57c-1.66,0-3-1.34-3-3s1.34-3,3-3h196.57c1.93,0,3.79.82,5.08,2.26l23.04,25.48c1.84,2.04,2.29,4.86,1.18,7.38s-3.51,4.07-6.26,4.07Z"/>
  </g>
  <circle cx="502.85" cy="452.52" r="16.92"/>
  <circle cx="394.26" cy="709" r="34.23"/>
  <circle cx="553.14" cy="554.44" r="18.51"/>
  <path d="M526.32,391.93c-.16,0-.33,0-.49,0-6.07-.17-10.2-3.4-11.69-4.78-1.22-1.13-1.29-3.02-.17-4.24,1.13-1.22,3.02-1.29,4.24-.16,1,.92,3.75,3.07,7.78,3.19,4.49.12,7.6-2.41,8.44-3.19,1.22-1.12,3.12-1.05,4.24.17,1.12,1.22,1.05,3.12-.17,4.24-1.58,1.46-5.88,4.78-12.18,4.78Z"/>
</svg>