<?xml version="1.0" encoding="UTF-8"?>
<svg id="Camada_1" data-name="Camada 1" xmlns="http://www.w3.org/2000/svg" viewBox="0 0 1080 1080">
  <defs>
    <style>
      .cls-1 {
        fill: #fff;
      }
    </style>
  </defs>
  <g>
    <path d="M691.59,593.38c-8.28,0-15-6.72-15-15v-56.15c0-70.46-57.33-127.79-127.79-127.79h-13.94c-70.46,0-127.79,57.33-127.79,127.79v56.15c0,8.28-6.72,15-15,15s-15-6.72-15-15v-56.15c0-87.01,70.79-157.79,157.79-157.79h13.94c87.01,0,157.79,70.79,157.79,157.79v56.15c0,8.28-6.72,15-15,15Z"/>
    <g>
      <path d="M650.7,583.39c-8.28,0-15-6.72-15-15v-40.92c0-49.1-39.95-89.05-89.05-89.05h-10.16c-8.94,0-17.75,1.32-26.2,3.91-7.92,2.43-16.31-2.01-18.74-9.93-2.43-7.92,2.01-16.31,9.93-18.74,11.31-3.47,23.09-5.24,35.01-5.24h10.16c65.65,0,119.05,53.41,119.05,119.05v40.92c0,8.28-6.72,15-15,15Z"/>
      <path d="M432.97,626.9c-.56,0-1.13-.03-1.7-.1-8.23-.93-14.15-8.36-13.22-16.59,1.65-14.56,2.62-29.52,2.88-44.47.19-10.34,0-18.58-.17-25.85-.34-14.77-.6-26.44,2.94-41.56,3.88-16.55,11.29-32.64,22.04-47.83,4.78-6.76,14.15-8.37,20.91-3.58,6.76,4.78,8.37,14.14,3.58,20.91-8.5,12.02-14.33,24.59-17.32,37.36-2.67,11.41-2.48,19.92-2.16,34.03.17,7.55.37,16.11.17,27.07-.29,15.89-1.32,31.8-3.07,47.3-.87,7.66-7.36,13.32-14.89,13.32Z"/>
    </g>
    <path d="M518.5,715.57c-1.67,0-3.36-.28-5.03-.87-7.81-2.77-11.88-11.35-9.11-19.16,7.16-20.14,12.69-40.89,16.42-61.65,6.12-34.01,7.59-68.77,4.37-103.31-.77-8.25,5.3-15.56,13.54-16.33,8.25-.77,15.56,5.29,16.33,13.54,3.47,37.24,1.88,74.72-4.72,111.41-4.02,22.37-9.97,44.71-17.68,66.39-2.18,6.14-7.96,9.98-14.13,9.98Z"/>
    <path d="M597.15,657.01c-8.28,0-15-6.72-15-15v-121.38c0-17.81-18.09-32.3-40.33-32.3s-40.33,14.49-40.33,32.3v121.38c0,8.28-6.72,15-15,15s-15-6.72-15-15v-121.38c0-34.35,31.55-62.3,70.33-62.3s70.33,27.95,70.33,62.3v121.38c0,8.28-6.72,15-15,15Z"/>
  </g>
  <g>
    <circle cx="648.87" cy="568.39" r="39.41"/>
    <path class="cls-1" d="M648.87,610.8c-23.38,0-42.41-19.03-42.41-42.41s19.03-42.41,42.41-42.41,42.41,19.03,42.41,42.41-19.03,42.41-42.41,42.41ZM648.87,531.98c-20.08,0-36.41,16.33-36.41,36.41s16.33,36.41,36.41,36.41,36.41-16.33,36.41-36.41-16.33-36.41-36.41-36.41Z"/>
  </g>
  <g>
    <circle cx="432.95" cy="410.85" r="68.05"/>
    <path class="cls-1" d="M432.95,481.9c-39.18,0-71.05-31.88-71.05-71.05s31.88-71.05,71.05-71.05,71.05,31.88,71.05,71.05-31.88,71.05-71.05,71.05ZM432.95,345.79c-35.87,0-65.05,29.18-65.05,65.05s29.18,65.05,65.05,65.05,65.05-29.18,65.05-65.05-29.18-65.05-65.05-65.05Z"/>
  </g>
</svg>