<?xml version="1.0" encoding="UTF-8"?>
<svg id="Camada_1" data-name="Camada 1" xmlns="http://www.w3.org/2000/svg" viewBox="0 0 1080 1080">
  <circle cx="656.5" cy="691.61" r="28.62"/>
  <circle cx="448.26" cy="566.58" r="13.74"/>
  <circle cx="496.44" cy="474.72" r="48.19"/>
  <path d="M669.05,704.88h-269.03c-2.8,0-5.37-1.31-6.87-3.51-1.36-1.99-1.65-4.41-.78-6.64l.07-.16,112.8-246.08c.69-1.51,2.47-2.17,3.98-1.48,1.51.69,2.17,2.47,1.48,3.98l-112.76,245.98c-.06.18-.15.55.17,1.01.29.43.95.89,1.92.89h269.03c.96,0,1.62-.46,1.92-.89.31-.46.23-.83.17-1.01l-112.54-245.52c-.14-.3-.27-.61-.39-.93-2.87-7.51-4.4-15.33-4.54-23.27l-.91-52.17c-.12-6.79-6.6-12.32-14.46-12.32h-19.21c-1.66,0-3-1.34-3-3s1.34-3,3-3h19.21c11.1,0,20.28,8.17,20.46,18.21l.91,52.17c.13,7.23,1.52,14.37,4.14,21.23.07.19.15.38.24.57l112.62,245.7.03.08c.87,2.23.58,4.65-.78,6.64-1.5,2.2-4.07,3.51-6.87,3.51Z"/>
  <path d="M652.01,693.11h-234.95c-2.08,0-3.97-.96-5.08-2.57-.98-1.43-1.18-3.17-.56-4.76.3-.77,1.17-1.16,1.94-.85.77.3,1.15,1.17.85,1.94-.35.9,0,1.62.24,1.98.54.79,1.51,1.27,2.6,1.27h234.95c1.08,0,2.06-.47,2.6-1.27.24-.35.59-1.08.24-1.98l-98.28-214.42c-.35-.75-.01-1.64.74-1.99.75-.35,1.64-.01,1.99.74l98.32,214.5c.66,1.67.45,3.41-.53,4.84-1.1,1.61-3,2.57-5.07,2.57Z"/>
  <path d="M587.45,597.05h-52.74c-1.66,0-3-1.34-3-3s1.34-3,3-3h52.74c1.66,0,3,1.34,3,3s-1.34,3-3,3Z"/>
  <path d="M571.03,565.28h-52.74c-1.66,0-3-1.34-3-3s1.34-3,3-3h52.74c1.66,0,3,1.34,3,3s-1.34,3-3,3Z"/>
  <path d="M601.64,628.82h-52.74c-1.66,0-3-1.34-3-3s1.34-3,3-3h52.74c1.66,0,3,1.34,3,3s-1.34,3-3,3Z"/>
</svg>