<?xml version="1.0" encoding="UTF-8"?>
<svg id="Camada_1" data-name="Camada 1" xmlns="http://www.w3.org/2000/svg" viewBox="0 0 1080 1080">
  <defs>
    <style>
      .cls-1 {
        fill: #fff;
      }
    </style>
  </defs>
  <g>
    <line x1="596.64" y1="506.97" x2="652.47" y2="831.98"/>
    <path d="M652.46,834.65c-1.27,0-2.4-.92-2.62-2.22l-55.83-325c-.25-1.45.72-2.83,2.18-3.08,1.45-.25,2.83.73,3.08,2.18l55.83,325c.25,1.45-.72,2.83-2.18,3.08-.15.03-.3.04-.45.04Z"/>
  </g>
  <g>
    <path d="M442.62,339.76h0c8.71-7.8,21.36-9.34,31.67-3.83,25.64,13.71,59.84,36.31,91.97,72.44,31.44,35.34,49.75,71.09,60.41,97.74,4.34,10.85,1.41,23.25-7.3,31.04h0c-11.46,10.26-29.06,9.29-39.31-2.17l-139.61-155.9c-10.26-11.46-9.29-29.06,2.17-39.31Z"/>
    <path d="M600.81,546.9c-8.38,0-16.73-3.42-22.74-10.14l-139.61-155.9c-11.22-12.53-10.16-31.86,2.38-43.08h0c9.52-8.52,23.46-10.21,34.7-4.2,35.12,18.77,66.31,43.34,92.71,73.02,25.89,29.11,46.38,62.26,60.9,98.52,4.73,11.83,1.52,25.5-7.99,34.02-5.81,5.21-13.09,7.77-20.34,7.77ZM444.4,341.75c-10.34,9.26-11.22,25.21-1.96,35.55l139.61,155.9c4.49,5.01,10.65,7.97,17.37,8.34,6.7.38,13.17-1.9,18.18-6.38,7.85-7.03,10.5-18.31,6.6-28.06-14.29-35.69-34.45-68.31-59.93-96.96-25.98-29.2-56.67-53.38-91.23-71.86-9.27-4.96-20.78-3.56-28.63,3.47h0Z"/>
  </g>
  <g>
    <path d="M528.16,533.88h0c0-5.99,3.48-11.34,8.73-13.39,13.05-5.1,32-10.42,55.1-10.34,22.6.08,41.16,5.31,54.04,10.34,5.24,2.05,8.72,7.4,8.72,13.39h0c0,7.87-5.96,14.26-13.3,14.26h-99.98c-7.35,0-13.3-6.38-13.3-14.26Z"/>
    <path class="cls-1" d="M641.44,549.46h-99.98c-8.06,0-14.62-6.99-14.62-15.58,0-6.51,3.85-12.38,9.57-14.62,17.72-6.92,36.23-10.43,55.04-10.43.18,0,.36,0,.54,0,18.63.07,36.97,3.58,54.52,10.43,5.72,2.23,9.56,8.11,9.56,14.61,0,8.59-6.56,15.58-14.62,15.58ZM591.44,511.47c-18.47,0-36.67,3.45-54.08,10.25-4.72,1.84-7.89,6.73-7.89,12.16,0,7.13,5.38,12.94,11.98,12.94h99.98c6.61,0,11.98-5.8,11.98-12.94,0-5.43-3.17-10.32-7.88-12.16-17.24-6.74-35.26-10.19-53.57-10.25-.18,0-.36,0-.53,0Z"/>
  </g>
  <rect x="374.71" y="546.2" width="3.55" height="285.78"/>
  <polygon points="389.52 547.98 363.46 547.98 363.46 475.76 367.01 475.76 367.01 544.42 385.97 544.42 385.97 493.02 389.52 493.02 389.52 547.98"/>
  <g>
    <circle class="cls-1" cx="376.99" cy="549.64" r="12.4"/>
    <path d="M367.67,560.23c-.46,0-.91-.17-1.26-.52-.93-.93-1.32-2.1-1.64-3.04-.14-.42-.28-.82-.43-1.13-.17-.33-.42-.69-.69-1.07-.6-.85-1.27-1.8-1.47-3.05-.2-1.26.15-2.38.46-3.37.14-.44.27-.86.32-1.22.05-.35.06-.78.06-1.23,0-1.04.02-2.22.61-3.38.56-1.11,1.5-1.81,2.32-2.42.38-.28.74-.55,1.01-.82.27-.27.54-.63.83-1.01.62-.82,1.31-1.75,2.42-2.32,1.15-.59,2.33-.6,3.37-.61.46,0,.88,0,1.23-.06.36-.06.77-.19,1.21-.32.99-.31,2.11-.66,3.37-.46,1.25.2,2.21.87,3.05,1.47.38.27.74.52,1.07.69.3.16.7.29,1.13.43.94.32,2.12.71,3.04,1.63.93.93,1.32,2.1,1.64,3.04.14.42.28.82.43,1.13.17.33.42.69.69,1.07.6.85,1.27,1.81,1.47,3.05.2,1.26-.15,2.38-.46,3.37-.14.44-.27.86-.32,1.21-.05.35-.06.78-.06,1.23,0,1.04-.02,2.22-.61,3.37-.57,1.11-1.5,1.81-2.32,2.43-.38.28-.74.55-1.01.82-.7.69-1.82.69-2.51,0-.69-.7-.69-1.82,0-2.51.45-.45.95-.83,1.39-1.16.56-.42,1.09-.82,1.29-1.19.21-.4.21-1.08.22-1.79,0-.56.01-1.14.11-1.75.1-.61.27-1.18.44-1.72.21-.68.41-1.32.34-1.76-.07-.43-.45-.98-.86-1.56-.33-.47-.67-.95-.95-1.5-.27-.54-.46-1.08-.63-1.61-.23-.68-.44-1.32-.78-1.66s-.98-.55-1.66-.78c-.53-.18-1.07-.36-1.61-.63-.56-.28-1.04-.62-1.5-.95-.58-.41-1.13-.79-1.56-.86-.44-.07-1.08.13-1.76.34-.54.17-1.1.34-1.72.44-.61.1-1.19.1-1.75.11-.71,0-1.39.01-1.79.22-.37.19-.77.72-1.19,1.28-.33.44-.71.94-1.16,1.4s-.95.83-1.39,1.16c-.56.42-1.09.82-1.29,1.19-.21.41-.21,1.08-.22,1.79,0,.56-.01,1.14-.11,1.75-.1.62-.27,1.18-.44,1.72-.21.68-.41,1.32-.34,1.76.07.43.46.98.86,1.56.33.46.67.95.95,1.5.28.54.46,1.09.63,1.61.23.68.44,1.32.78,1.66.69.69.69,1.82,0,2.51-.35.35-.8.52-1.26.52Z"/>
  </g>
  <g>
    <line x1="554.98" y1="506.97" x2="499.15" y2="831.98"/>
    <path d="M499.15,834.65c-.15,0-.3-.01-.45-.04-1.45-.25-2.43-1.63-2.18-3.08l55.83-325c.25-1.45,1.63-2.43,3.08-2.18,1.45.25,2.43,1.63,2.18,3.08l-55.83,325c-.22,1.3-1.35,2.22-2.62,2.22Z"/>
  </g>
  <g>
    <g>
      <line x1="548.66" y1="543.57" x2="612.27" y2="597.98"/>
      <path d="M612.27,600.64c-.61,0-1.23-.21-1.73-.64l-63.61-54.4c-1.12-.96-1.25-2.64-.29-3.76s2.64-1.25,3.76-.29l63.61,54.4c1.12.96,1.25,2.64.29,3.76-.53.62-1.28.93-2.03.93Z"/>
    </g>
    <g>
      <line x1="538" y1="605.72" x2="624.73" y2="673.39"/>
      <path d="M624.73,676.06c-.57,0-1.15-.18-1.64-.56l-86.74-67.67c-1.16-.91-1.37-2.58-.46-3.74.91-1.16,2.58-1.37,3.74-.46l86.74,67.67c1.16.91,1.37,2.58.46,3.74-.53.67-1.31,1.03-2.1,1.03Z"/>
    </g>
    <g>
      <line x1="527.33" y1="667.87" x2="637.19" y2="748.8"/>
      <path d="M637.19,751.47c-.55,0-1.1-.17-1.58-.52l-109.86-80.93c-1.19-.87-1.44-2.54-.57-3.73.88-1.19,2.54-1.44,3.73-.57l109.86,80.93c1.19.87,1.44,2.54.57,3.73-.52.71-1.33,1.08-2.15,1.08Z"/>
    </g>
    <g>
      <line x1="516.66" y1="730.02" x2="649.66" y2="824.21"/>
      <path d="M649.65,826.88c-.53,0-1.07-.16-1.54-.49l-132.99-94.2c-1.2-.85-1.49-2.52-.63-3.72.85-1.2,2.52-1.49,3.72-.63l132.99,94.2c1.2.85,1.49,2.52.63,3.72-.52.73-1.34,1.13-2.18,1.13Z"/>
    </g>
  </g>
  <g>
    <g>
      <line x1="603.15" y1="542.47" x2="539.55" y2="596.87"/>
      <path d="M539.55,599.54c-.75,0-1.5-.32-2.03-.93-.96-1.12-.83-2.8.29-3.76l63.61-54.4c1.12-.96,2.8-.83,3.76.29s.83,2.8-.29,3.76l-63.61,54.4c-.5.43-1.12.64-1.73.64Z"/>
    </g>
    <g>
      <line x1="613.82" y1="604.62" x2="527.08" y2="672.28"/>
      <path d="M527.09,674.95c-.79,0-1.58-.35-2.1-1.03-.91-1.16-.7-2.84.46-3.74l86.74-67.67c1.16-.91,2.84-.7,3.74.46.91,1.16.7,2.84-.46,3.74l-86.74,67.67c-.49.38-1.07.56-1.64.56Z"/>
    </g>
    <g>
      <line x1="624.49" y1="666.76" x2="514.62" y2="747.7"/>
      <path d="M514.63,750.36c-.82,0-1.63-.38-2.15-1.08-.87-1.19-.62-2.86.57-3.73l109.86-80.93c1.19-.87,2.85-.62,3.73.57.87,1.19.62,2.86-.57,3.73l-109.86,80.93c-.48.35-1.03.52-1.58.52Z"/>
    </g>
    <g>
      <line x1="635.15" y1="728.91" x2="502.16" y2="823.11"/>
      <path d="M502.16,825.77c-.83,0-1.66-.39-2.18-1.13-.85-1.2-.57-2.87.63-3.72l132.99-94.2c1.2-.85,2.87-.57,3.72.63.85,1.2.57,2.87-.63,3.72l-132.99,94.2c-.47.33-1.01.49-1.54.49Z"/>
    </g>
  </g>
  <g>
    <path d="M476.43,796.88h205.11c19.37,0,35.1,15.73,35.1,35.1h-275.31c0-19.37,15.73-35.1,35.1-35.1Z"/>
    <path d="M716.64,835.56h-275.31c-1.98,0-3.58-1.6-3.58-3.58,0-21.33,17.35-38.68,38.68-38.68h205.11c21.33,0,38.68,17.35,38.68,38.68,0,1.98-1.6,3.58-3.58,3.58ZM445.11,828.4h267.75c-1.78-15.7-15.15-27.94-31.32-27.94h-205.11c-16.17,0-29.54,12.24-31.32,27.94Z"/>
  </g>
  <path d="M573.29,805.38c-1.47,0-2.67-1.19-2.67-2.67v-286.09c0-1.47,1.19-2.67,2.67-2.67s2.67,1.19,2.67,2.67v286.09c0,1.47-1.19,2.67-2.67,2.67Z"/>
  <g>
    <g>
      <ellipse cx="634.07" cy="674.04" rx="47.21" ry="52.24"/>
      <path class="cls-1" d="M634.07,729.07c-27.57,0-49.99-24.69-49.99-55.03s22.43-55.03,49.99-55.03,50,24.69,50,55.03-22.43,55.03-50,55.03ZM634.07,624.59c-24.49,0-44.42,22.18-44.42,49.45s19.92,49.45,44.42,49.45,44.42-22.18,44.42-49.45-19.93-49.45-44.42-49.45Z"/>
    </g>
    <g>
      <path d="M713.29,679.47h0c0,10.09-6.08,16.55-10.82,22.58-11.7,14.88-33.66,34.74-61.89,39.47-24.15,4.04-50.99-7.9-66.51-17.18-9.64-5.77-17.64-15.03-17.64-25.12h0c0-13.28,7.52-22.47,16.48-24.04,26.9-4.73,91.26-17.23,122.53-19.64,9.08-.7,17.83,10.66,17.83,23.94Z"/>
      <path d="M630.48,743.67c-23.82,0-47.25-12.31-57.08-18.18-11.45-6.85-18.29-16.67-18.29-26.27,0-13.11,7.23-23.54,17.59-25.36,5.05-.89,11.43-2.05,18.66-3.37,31.28-5.71,78.54-14.33,104-16.29,3.69-.29,7.53,1.23,10.81,4.27,5.22,4.83,8.46,12.88,8.46,21,0,9.56-5.13,15.96-9.67,21.6-.49.61-.97,1.21-1.44,1.8-8.02,10.2-30.19,34.52-62.72,39.96-3.43.57-6.89.83-10.34.83ZM696.27,656.85c-.24,0-.47,0-.71.03-25.32,1.95-72.5,10.56-103.72,16.25-7.24,1.32-13.62,2.48-18.68,3.37-9.05,1.59-15.38,10.94-15.38,22.73,0,10.19,8.77,19.06,16.98,23.97,9.61,5.75,32.54,17.8,55.67,17.81,3.32,0,6.64-.25,9.93-.8,32.5-5.44,54.95-31.21,61.06-38.98.47-.6.96-1.21,1.45-1.82,4.46-5.56,9.08-11.31,9.08-19.93,0-7.4-2.92-14.69-7.61-19.04-2.55-2.36-5.33-3.59-8.08-3.59Z"/>
    </g>
    <g>
      <path class="cls-1" d="M722.81,679.47h0c0,10.09-6.08,16.55-10.82,22.58-11.7,14.88-33.66,34.74-61.89,39.47-24.15,4.04-50.99-7.9-66.51-17.18-9.64-5.77-17.64-15.03-17.64-25.12h0c0-13.28,7.52-22.47,16.48-24.04,26.9-4.73,91.26-17.23,122.53-19.64,9.08-.7,17.83,10.66,17.83,23.94Z"/>
      <path d="M640,744.24c-23.97,0-47.51-12.36-57.38-18.26-11.62-6.95-18.56-16.95-18.56-26.76,0-13.39,7.42-24.05,18.06-25.92,5.05-.89,11.42-2.05,18.65-3.37,31.29-5.71,78.57-14.33,104.06-16.3,3.85-.3,7.84,1.27,11.24,4.42,5.33,4.94,8.65,13.14,8.65,21.42,0,9.76-5.2,16.24-9.79,21.96-.49.61-.97,1.2-1.43,1.8-8.06,10.25-30.34,34.69-63.07,40.17-3.46.58-6.95.84-10.42.84ZM705.79,657.41c-.22,0-.44,0-.67.03-25.3,1.95-72.46,10.55-103.67,16.25-7.24,1.32-13.62,2.48-18.67,3.37-8.78,1.54-14.91,10.66-14.91,22.17,0,9.95,8.63,18.65,16.71,23.48,10.94,6.54,39.19,21.29,65.21,16.93,32.29-5.4,54.63-31.04,60.7-38.77.47-.6.96-1.21,1.46-1.83,4.4-5.48,8.95-11.15,8.95-19.57,0-7.24-2.85-14.38-7.42-18.62-1.73-1.6-4.43-3.44-7.69-3.44Z"/>
    </g>
  </g>
  <g>
    <path class="cls-1" d="M453.6,331.73h0c8.71-7.8,21.36-9.34,31.67-3.83,25.64,13.71,59.84,36.31,91.97,72.44,31.44,35.34,49.75,71.09,60.41,97.74,4.34,10.85,1.41,23.25-7.3,31.04h0c-11.46,10.26-29.06,9.29-39.31-2.17l-139.61-155.9c-10.26-11.46-9.29-29.06,2.17-39.31Z"/>
    <path d="M611.79,538.87c-8.38,0-16.73-3.42-22.74-10.14l-139.61-155.9c-11.22-12.53-10.16-31.86,2.37-43.08h0c9.51-8.52,23.46-10.21,34.7-4.2,35.12,18.77,66.31,43.34,92.71,73.02,25.9,29.11,46.38,62.26,60.89,98.52,4.73,11.83,1.52,25.5-7.99,34.02-5.81,5.21-13.09,7.77-20.34,7.77ZM453.6,331.73l1.78,1.99c-10.34,9.26-11.22,25.21-1.96,35.55l139.61,155.9c9.26,10.34,25.21,11.22,35.55,1.96,7.85-7.03,10.5-18.31,6.6-28.06-14.28-35.69-34.44-68.31-59.93-96.96-25.98-29.21-56.68-53.38-91.24-71.86-9.27-4.96-20.78-3.57-28.63,3.47l-1.78-1.99Z"/>
  </g>
  <g>
    <path d="M373.14,486.17h0c-10.41-5.31-16.41-16.56-14.99-28.16,3.55-28.86,12.31-68.91,34.42-111.9,21.64-42.06,48.38-72.02,69.39-91.58,8.55-7.96,21.18-9.69,31.58-4.38h0c13.7,6.99,19.14,23.76,12.15,37.45l-95.11,186.41c-6.99,13.7-23.76,19.14-37.45,12.15Z"/>
    <path d="M385.76,491.89c-4.75,0-9.47-1.12-13.83-3.35-11.38-5.8-17.98-18.2-16.42-30.86,4.86-39.53,16.53-77.47,34.7-112.79,17.82-34.65,41.35-65.7,69.95-92.31,9.33-8.68,23.23-10.61,34.61-4.8,14.98,7.64,20.96,26.06,13.31,41.04l-95.11,186.41c-3.7,7.26-10.01,12.64-17.76,15.16-3.1,1-6.28,1.5-9.44,1.5ZM480.91,249.79c-6.23,0-12.39,2.3-17.13,6.7-28.14,26.19-51.3,56.75-68.84,90.85-17.88,34.75-29.37,72.1-34.15,111-1.28,10.44,4.17,20.67,13.55,25.46h0c5.99,3.05,12.81,3.6,19.21,1.52s11.6-6.52,14.66-12.51l95.11-186.41c6.31-12.37,1.38-27.56-10.98-33.87-3.61-1.84-7.53-2.74-11.43-2.74Z"/>
  </g>
  <g>
    <path class="cls-1" d="M382.04,490.27h0c-10.41-5.31-16.41-16.56-14.99-28.16,3.55-28.86,12.31-68.91,34.42-111.9,21.64-42.06,48.38-72.02,69.39-91.58,8.55-7.96,21.18-9.69,31.58-4.38h0c13.7,6.99,19.14,23.76,12.15,37.45l-95.11,186.41c-6.99,13.7-23.76,19.14-37.45,12.15Z"/>
    <path d="M394.65,495.98c-4.66,0-9.39-1.07-13.82-3.33h0c-11.38-5.8-17.98-18.2-16.42-30.86,4.85-39.52,16.53-77.47,34.7-112.79,17.82-34.65,41.35-65.7,69.95-92.31,9.33-8.68,23.23-10.61,34.61-4.8,14.98,7.64,20.96,26.06,13.31,41.04l-95.11,186.41c-5.39,10.56-16.12,16.64-27.23,16.64ZM489.81,253.89c-6.23,0-12.39,2.3-17.12,6.7-28.14,26.19-51.3,56.75-68.84,90.85-17.88,34.76-29.37,72.11-34.15,111-1.28,10.44,4.17,20.67,13.55,25.46h0c5.99,3.05,12.81,3.59,19.21,1.52,6.4-2.07,11.6-6.52,14.66-12.51l95.11-186.41c6.31-12.37,1.38-27.56-10.99-33.87-3.61-1.84-7.53-2.74-11.43-2.74Z"/>
  </g>
  <g>
    <line x1="628.65" y1="537.25" x2="649.66" y2="708.4"/>
    <path d="M649.65,711.07c-1.33,0-2.48-.99-2.64-2.34l-21.01-171.16c-.18-1.46.86-2.79,2.32-2.97,1.47-.18,2.79.86,2.97,2.32l21.01,171.16c.18,1.46-.86,2.79-2.32,2.97-.11.01-.22.02-.33.02Z"/>
  </g>
</svg>