<?xml version="1.0" encoding="UTF-8"?>
<svg id="Camada_1" data-name="Camada 1" xmlns="http://www.w3.org/2000/svg" viewBox="0 0 1080 1080">
  <path d="M510.79,632.72c-37.24,0-74.48-14.18-102.83-42.53-56.7-56.7-56.7-148.96,0-205.67,27.47-27.47,63.99-42.59,102.83-42.59s75.37,15.13,102.83,42.59c27.47,27.47,42.59,63.99,42.59,102.83s-15.13,75.37-42.59,102.83c-28.35,28.35-65.59,42.53-102.83,42.53ZM510.79,347.93c-37.24,0-72.26,14.5-98.59,40.84-54.36,54.36-54.36,142.82,0,197.18s142.82,54.36,197.18,0c26.33-26.33,40.84-61.35,40.84-98.59s-14.5-72.26-40.84-98.59c-26.33-26.33-61.35-40.84-98.59-40.84Z"/>
  <path d="M395.89,506.53c-3.79,0-7.75-2.55-8.11-7.51-2.73-37.14,10.62-73.36,36.64-99.38h0c26.03-26.03,62.27-39.39,99.42-36.64,5.06.37,7.61,4.48,7.51,8.34-.1,3.86-2.86,7.83-7.93,7.94-31.89.71-61.72,13.44-84,35.84-22.08,22.21-34.64,51.85-35.36,83.46-.12,5.09-4.09,7.85-7.96,7.94-.07,0-.14,0-.21,0ZM514.26,368.64c-32.16,0-62.95,12.57-85.61,35.23h0c-24.78,24.78-37.5,59.3-34.9,94.7.13,1.81,1.59,1.98,2.19,1.95.62-.02,2.07-.25,2.11-2.08.75-33.16,13.93-64.26,37.11-87.56,23.37-23.5,54.67-36.86,88.12-37.61,1.82-.04,2.05-1.48,2.07-2.1.02-.62-.14-2.07-1.95-2.2-3.05-.23-6.1-.34-9.13-.34Z"/>
  <path d="M575.75,549.29c-5.76,0-11.6-1.44-16.96-4.48-8.03-4.54-13.8-11.94-16.26-20.83-2.46-8.89-1.31-18.21,3.23-26.23,4.54-8.03,11.94-13.8,20.83-16.27,8.89-2.46,18.2-1.32,26.23,3.23h0c16.57,9.38,22.42,30.49,13.03,47.06-6.35,11.21-18.06,17.51-30.11,17.51ZM575.85,486.22c-2.56,0-5.13.35-7.66,1.05-7.34,2.03-13.46,6.81-17.21,13.44s-4.7,14.33-2.67,21.67c2.03,7.35,6.81,13.46,13.44,17.21,13.69,7.75,31.13,2.92,38.89-10.77,7.75-13.69,2.92-31.13-10.77-38.89h0c-4.35-2.46-9.15-3.72-14.01-3.72Z"/>
  <path d="M653.22,738.07c-33.86,0-61.41-27.55-61.41-61.41s27.55-61.41,61.41-61.41,61.41,27.55,61.41,61.41-27.55,61.41-61.41,61.41ZM653.22,619.25c-31.66,0-57.41,25.75-57.41,57.41s25.75,57.41,57.41,57.41,57.41-25.75,57.41-57.41-25.75-57.41-57.41-57.41Z"/>
  <path d="M616.41,711.45c-1.31,0-2.59-.6-3.51-1.75-7.6-9.5-11.78-21.37-11.78-33.44s4.2-23.98,11.83-33.49c1.58-1.98,4.21-2.32,6.25-.81,2.04,1.51,2.49,4.13,1.07,6.23-5.69,8.39-8.68,18.15-8.66,28.21.03,9.96,3.01,19.61,8.64,27.91,1.41,2.09.96,4.69-1.08,6.2-.86.63-1.82.94-2.76.94ZM616.46,645.03c-.2,0-.32.15-.39.24-7.06,8.8-10.95,19.81-10.95,30.99s3.87,22.14,10.9,30.94c.1.12.33.41.77.08.42-.31.23-.6.14-.73-6.07-8.96-9.29-19.38-9.32-30.14-.03-10.88,3.2-21.41,9.34-30.47.1-.15.3-.45-.13-.77-.14-.1-.26-.14-.36-.14Z"/>
  <path d="M682.34,670.97c-6.64,0-12.75-4.41-14.61-11.11-2.23-8.05,2.51-16.42,10.56-18.65h0c8.04-2.23,16.42,2.51,18.65,10.56,2.23,8.05-2.51,16.42-10.56,18.65-1.35.37-2.71.55-4.04.55ZM679.35,645.07c-5.93,1.64-9.41,7.8-7.77,13.73,1.64,5.93,7.8,9.42,13.73,7.77,5.93-1.64,9.41-7.8,7.77-13.73-1.64-5.92-7.79-9.42-13.73-7.77h0Z"/>
</svg>