<svg width="130" height="129" viewBox="0 0 130 129" fill="none" xmlns="http://www.w3.org/2000/svg">
<path d="M93 5.75C98.5 0.25 107.25 0.25 112.75 5.75L124.25 17.25C129.75 22.75 129.75 31.5 124.25 37L110.25 51L79 19.75L93 5.75ZM105.25 57L93.75 95.5C92.25 100.5 88.5 104.25 83.5 106L17.5 128.25C14.5 129 11.5 128.5 9.25 126.25L47.75 88C49.25 88.75 51 89 52.75 89C59.5 89 64.75 83.75 64.75 77C64.75 70.5 59.5 65 52.75 65C46.25 65 40.75 70.5 40.75 77C40.75 79 41.25 80.75 42 82.25L3.75 120.75C1.5 118.5 0.75 115.5 1.75 112.5L24 46.5C25.5 41.5 29.5 37.75 34.5 36.25L72.75 24.75L105.25 57Z" fill="url(#paint0_linear_15_21)"/>
<defs>
<linearGradient id="paint0_linear_15_21" x1="65.3044" y1="165" x2="65.3044" y2="16" gradientUnits="userSpaceOnUse">
<stop offset="0.166911" stop-color="#48227C"/>
<stop offset="1" stop-color="#FF6201"/>
</linearGradient>
</defs>
</svg>
