<svg width="65" height="66" viewBox="0 0 65 66" fill="none" xmlns="http://www.w3.org/2000/svg">
<path d="M38.8477 41.5117L20.5664 48.4941C18.0273 49.5098 15.6152 46.9707 16.6309 44.5586L23.6133 26.2773C24.1211 25.1348 24.8828 24.373 26.0254 23.8652L44.3066 16.8828C46.8457 15.8672 49.2578 18.2793 48.2422 20.8184L41.2598 39.0996C40.752 40.2422 39.9902 41.0039 38.8477 41.5117ZM32.373 28.5625C30.2148 28.5625 28.3105 30.4668 28.3105 32.625C28.3105 34.9102 30.2148 36.6875 32.373 36.6875C34.6582 36.6875 36.5625 34.9102 36.5625 32.625C36.5625 30.4668 34.6582 28.5625 32.373 28.5625ZM65 32.625C65 50.6523 50.4004 65.125 32.5 65.125C14.4727 65.125 0 50.6523 0 32.625C0 14.7246 14.4727 0.125 32.5 0.125C50.4004 0.125 65 14.7246 65 32.625ZM32.5 6.21875C17.9004 6.21875 6.09375 18.1523 6.09375 32.625C6.09375 47.2246 17.9004 59.0312 32.5 59.0312C46.9727 59.0312 58.9062 47.2246 58.9062 32.625C58.9062 18.1523 46.9727 6.21875 32.5 6.21875Z" fill="url(#paint0_linear_39_62)"/>
<defs>
<linearGradient id="paint0_linear_39_62" x1="32.6546" y1="62" x2="32.6546" y2="3" gradientUnits="userSpaceOnUse">
<stop offset="0.166911" stop-color="#48227C"/>
<stop offset="1" stop-color="#FF6201"/>
</linearGradient>
</defs>
</svg>
