<svg width="65" height="66" viewBox="0 0 65 66" fill="none" xmlns="http://www.w3.org/2000/svg">
<path d="M62.5879 20.8184C64.1113 21.9609 65 23.7383 65 25.6426V57C65 61.5703 61.3184 65.125 56.875 65.125H8.125C3.55469 65.125 0 61.5703 0 57V25.6426C0 23.7383 0.761719 21.9609 2.28516 20.8184C5.45898 18.4062 7.99805 16.375 23.1055 5.45703C25.2637 3.93359 29.4531 0.125 32.373 0.125H32.5C35.4199 0.125 39.6094 3.93359 41.7676 5.45703C56.875 16.375 59.4141 18.4062 62.5879 20.8184ZM58.9062 57V35.291L41.5137 49.6367C38.9746 51.7949 35.8008 52.9375 32.5 52.9375C29.0723 52.9375 25.8984 51.7949 23.3594 49.7637L6.09375 35.291V57C6.09375 58.1426 6.98242 59.0312 8.125 59.0312H56.875C57.8906 59.0312 58.9062 58.1426 58.9062 57ZM58.9062 27.4199V25.6426C55.8594 23.3574 53.4473 21.4531 38.2129 10.4082C37.7051 10.0273 37.3242 9.77344 36.8164 9.39258C35.8008 8.50391 33.6426 6.85352 32.5 6.3457C31.2305 6.85352 29.0723 8.50391 28.0566 9.39258C27.5488 9.77344 27.168 10.0273 26.7871 10.4082C11.4258 21.4531 9.01367 23.3574 6.09375 25.6426V27.4199L27.168 44.9395C30.0879 47.3516 34.7852 47.3516 37.7051 44.9395L58.9062 27.4199Z" fill="url(#paint0_linear_27_141)"/>
<defs>
<linearGradient id="paint0_linear_27_141" x1="32.6546" y1="62" x2="32.6546" y2="3" gradientUnits="userSpaceOnUse">
<stop offset="0.166911" stop-color="#48227C"/>
<stop offset="1" stop-color="#FF6201"/>
</linearGradient>
</defs>
</svg>
