<svg width="160" height="96" viewBox="0 0 160 96" fill="none" xmlns="http://www.w3.org/2000/svg">
<path d="M112 0C138.5 0 160 21.5 160 48C160 74.75 138.5 96 112 96H48C21.25 96 0 74.75 0 48C0 21.5 21.25 0 48 0H112ZM61.75 54C65.25 54 67.75 51.5 67.75 48C67.75 44.75 65 42 61.75 42H53.75V34C53.75 30.75 51 28 47.75 28C44.25 28 41.75 30.75 41.75 34V42H33.75C30.25 42 27.75 44.75 27.75 48C27.75 51.5 30.5 54 34 54H41.75V62C41.75 65.5 44.25 68 47.75 68C51 68 53.75 65.5 53.75 62V54H61.75ZM107.75 70C113.5 70 117.5 66 117.5 60.25C117.5 54.75 113 50.25 107.75 50.25C102.25 50.25 98 55 98 60.25C98 65.75 102 70 107.75 70ZM123.75 46C129.5 46 133.5 42 133.5 36.25C133.5 30.75 129.25 26.25 123.75 26.25C118.25 26.25 114 31 114 36.25C114 41.75 118 46 123.75 46Z" fill="url(#paint0_linear_83_14)"/>
<defs>
<linearGradient id="paint0_linear_83_14" x1="80.3805" y1="148" x2="80.3805" y2="-0.999995" gradientUnits="userSpaceOnUse">
<stop offset="0.166911" stop-color="#48227C"/>
<stop offset="1" stop-color="#FF6201"/>
</linearGradient>
</defs>
</svg>
