<?xml version="1.0" encoding="utf-8"?>
<!-- Generator: Adobe Illustrator 27.7.0, SVG Export Plug-In . SVG Version: 6.00 Build 0)  -->
<svg version="1.1" id="Camada_1" xmlns="http://www.w3.org/2000/svg" xmlns:xlink="http://www.w3.org/1999/xlink" x="0px" y="0px"
	 viewBox="0 0 518 758.8" style="enable-background:new 0 0 518 758.8;" xml:space="preserve">
<style type="text/css">
	.st0{fill:#FFFFFF;}
</style>
<g>
	<path d="M45.4,758.8v-6c0-27.6,22.4-50,50-50h330.2c27.6,0,50,22.4,50,50v6H45.4z M463.2,746.9c-2.9-18.2-18.8-32.1-37.6-32.1H95.4
		c-18.8,0-34.7,13.8-37.6,32.1H463.2z"/>
	<path d="M472.6,755.8H48.4v-3c0-25.9,21.1-47,47-47h330.2c25.9,0,47,21.1,47,47V755.8z M54.5,749.9h412.1
		c-1.5-21.2-19.3-38.1-40.9-38.1H95.4C73.8,711.8,56,728.6,54.5,749.9z"/>
	<path d="M144.4,714.8v-6c0-27.6,22.4-50,50-50h132.2c27.6,0,50,22.4,50,50v6H144.4z M364.2,702.8c-2.9-18.2-18.8-32.1-37.6-32.1
		H194.4c-18.8,0-34.7,13.8-37.6,32.1H364.2z"/>
	<path d="M373.6,711.8H147.4v-3c0-25.9,21.1-47,47-47h132.2c25.9,0,47,21.1,47,47L373.6,711.8L373.6,711.8z M153.4,705.8h214.1
		c-1.5-21.2-19.3-38.1-40.9-38.1H194.4C172.8,667.7,155,684.5,153.4,705.8L153.4,705.8z"/>
	<g>
		<path d="M307.8,634.1c-3,0-5.9-0.1-8.9-0.2c-17.7-0.8-35.5-3.9-52.7-9.3c-3.1-1-5.6-3.1-7.1-6.1c-1.4-2.9-1.6-6.2-0.5-9.2l8.8-24
			c2.2-5.9,8.5-9,14.4-7.2c9.3,2.9,18.9,4.9,28.6,6c72.3,8.1,140.1-33.9,165.1-102.2c25.9-70.8-0.9-146.3-65.1-183.7
			c-4.2-2.4-8.5-4.7-12.9-6.8c-1.8-0.9-3.7-1.7-5.5-2.4l2.3-5.5c1.9,0.8,3.9,1.7,5.7,2.5c4.6,2.2,9.1,4.5,13.4,7
			c32.1,18.7,56.6,47.7,68.9,81.8c12.6,34.9,12.2,72.6-1.1,109.1c-12.8,35-36.3,63.8-68.2,83.2c-30.9,18.8-67.5,27-103.2,23
			c-10.1-1.1-20.1-3.2-29.7-6.2c-2.9-0.9-6,0.7-7,3.5l-8.8,24c-0.5,1.5-0.5,3.1,0.2,4.5c0.7,1.4,1.9,2.5,3.5,3
			c16.7,5.3,33.9,8.3,51.2,9.1c3,0.1,6.1,0.2,9.1,0.2c83.9,0,158.6-51.9,187.7-131.5c38.3-104.8,8.2-195.2-78.4-236.1
			c-2.5-1.2-5.2-2.4-8.2-3.6l-0.2-0.1l2.1-5.6c0.1,0.1,0.3,0.1,0.5,0.2c3.1,1.3,5.8,2.5,8.4,3.8c45,21.2,76.1,56.1,89.9,100.8
			c13.1,42.5,10.2,91.9-8.4,142.8c-15.3,42-43.1,77.1-80.4,101.6C387.6,622.2,347.7,634.1,307.8,634.1z"/>
		<path d="M410.2,254c0.1,0,0.2,0.1,0.4,0.2c2.8,1.2,5.6,2.4,8.3,3.7l0,0c92.5,43.6,116.2,140.4,79.9,239.8
			C467.6,583,385.2,634.8,299,630.9c-17.3-0.8-34.7-3.8-51.9-9.2c-4.8-1.5-7.3-6.7-5.6-11.4l8.8-24c1.6-4.3,6.3-6.7,10.7-5.4
			c9.7,3,19.4,5,29.2,6.1c71.7,8.1,142.4-33.5,168.2-104.2c26.8-73.5-1.7-149.6-66.4-187.3c-4.2-2.5-8.6-4.8-13.2-6.9
			c-1.8-0.9-3.7-1.7-5.6-2.5"/>
		<path d="M199.3,468.3c-2.8,0-5.6-0.7-8-2.1l-31.8-18.4c-7.7-4.5-10.4-14.4-5.9-22.1l5.4-9.4c-18.1-26.2-19.5-60.6-3.5-88.2
			L167,308l-0.2-0.1L299.5,78.1c14.7-25.5,42.1-41.3,71.6-41.3c3.6,0,7.2,0.2,10.7,0.7l3,0.4l-1.6,11.9l-3-0.4
			c-2.9-0.4-6-0.6-9.1-0.6c-25.2,0-48.6,13.5-61.2,35.3L183.1,303.6l0.2,0.1l-17.5,30.4c-14.3,24.8-12.3,55.5,5.1,78.2l2.4,3.2
			l-9.3,16.2c-0.6,1-0.7,2.1-0.4,3.2c0.3,1.1,1,2,2,2.6l31.8,18.3c0.6,0.4,1.3,0.6,2.1,0.6c1.5,0,2.9-0.8,3.6-2.1l9.1-15.7l4,0.6
			c3.7,0.6,7.4,0.9,11.1,0.9c25.4,0,48.1-13.2,60.9-35.3l75-129.9l10.4,6l-6.7,11.6l-68.3,118.3c-14.9,25.9-41.6,41.3-71.3,41.3
			c-2.9,0-5.9-0.2-8.8-0.5l-5,8.7c-2,3.5-5.2,6-9,7.3l0.5,0.8L199.3,468.3z"/>
		<path d="M199.3,465.3c-2.2,0-4.5-0.6-6.5-1.7L161,445.2c-6.3-3.6-8.4-11.7-4.8-18l6.4-11c-18.5-25.5-20.3-59.2-4.5-86.6l13.1-22.7
			l-0.2-0.1L302.1,79.6c14.2-24.5,40.6-39.8,69-39.8c3.5,0,7,0.2,10.3,0.7l-0.8,5.9c-3.1-0.4-6.3-0.6-9.5-0.6
			c-26.3,0-50.7,14.1-63.8,36.8l-128.1,222l0.2,0.1l-16.1,27.9c-14.9,25.8-12.8,57.8,5.3,81.5l1.2,1.6l-8.3,14.5
			c-2,3.4-0.8,7.8,2.6,9.8l31.8,18.4c3.4,2,7.8,0.8,9.8-2.6l8-13.9l2,0.3c30.3,4.7,59.8-9.4,75.1-35.9l73.5-127.3l5.2,3l-5.2,9
			l-68.3,118.3c-16.2,28.1-47.1,43.3-79.1,39.1l-6,10.4C208.3,462.9,203.8,465.2,199.3,465.3L199.3,465.3z"/>
		<path d="M394.6,237.3l-7.4-4.3l27.6-47.7l-0.2-0.1l17.6-30.5c12.6-21.9,12.6-49.1-0.2-70.9l-1.5-2.6l10.3-6l1.5,2.6
			c14.9,25.6,15,57.4,0.2,83l-11.6,20.1l0.2,0.1l-34,58.9L394.6,237.3z"/>
		<path d="M396.5,234.9l-5.2-3l27.6-47.7l-0.2-0.1l16.1-27.9c13.2-22.8,13.1-51.2-0.2-74l5.2-3c14.4,24.6,14.5,55.3,0.2,80
			l-13.1,22.7l0.2,0.1L396.5,234.9L396.5,234.9z"/>
		<path class="st0" d="M374.9,300c-1,0-1.9-0.1-2.7-0.4c-2.9-0.8-5-3.1-6.8-5c-1-1.1-2-2.1-2.9-2.8c-0.9-0.6-2.2-1.1-3.6-1.6
			c-2.5-0.9-5.4-2-7.3-4.5c-1.9-2.5-2.2-5.1-2.5-7.5c-0.2-1.3-0.3-2.6-0.7-3.7l-0.3-0.8l0.2-0.9c0.4-1.7,0.4-2.8,0.3-3.8
			c-0.1-1.7-0.2-3.6,1.3-6.9c1.4-3,3.1-4.2,4.5-5.2c1.1-0.7,1.7-1.2,2.5-2.7c0.7-1.5,0.6-2.3,0.5-3.6c-0.2-1.7-0.4-3.7,1-6.8
			c1.4-3,3.3-4.2,4.7-5.1c1.3-0.8,1.8-1.1,2.2-2.6c0.5-1.6,0.3-2.7,0.2-3.9c-0.2-1.9-0.5-4.3,1.9-7.6l0.5-0.7l0.8-0.3
			c1.3-0.5,2.7-0.7,4.4-0.7c1.6,0,3.3,0.2,4.8,0.4c1.3,0.2,2.6,0.3,3.6,0.3c0.1,0,0.2,0,0.3,0c1.1,0,2.4-0.4,3.9-0.8
			c1.9-0.5,3.8-1,5.8-1c1,0,1.9,0.1,2.7,0.4c2.9,0.8,5,3.1,6.8,5c1,1.1,2,2.1,2.9,2.8c0.9,0.6,2.2,1.1,3.6,1.6
			c2.5,0.9,5.4,2,7.3,4.5c1.9,2.5,2.3,5.4,2.6,8c0.2,1.5,0.3,2.9,0.7,4c0.4,1.1,1.2,2.3,2,3.6c1.4,2.2,3.1,4.7,3.2,7.7
			c0.1,3-1.4,5.7-2.7,8c-0.7,1.3-1.4,2.5-1.7,3.6c-0.3,1.1-0.4,2.5-0.4,3.9c-0.1,2.7-0.3,5.7-2,8.3c-1.7,2.6-4.5,3.8-6.9,5
			c-1.3,0.6-2.6,1.2-3.5,1.9c-0.9,0.7-1.8,1.8-2.7,2.9c-1.7,2.1-3.5,4.4-6.5,5.5c-1.1,0.4-2.3,0.6-3.6,0.6c-1.7,0-3.4-0.3-5-0.6
			c-1.3-0.3-2.6-0.5-3.6-0.5l-0.2,0c-1.1,0-2.4,0.4-3.9,0.8C378.8,299.5,376.9,300,374.9,300z"/>
		<path class="st0" d="M369.7,226.4c3.6-1.3,8.6,0.4,12.2,0.2c3.7-0.1,7.9-2.6,11.5-1.6s5.8,5.3,8.9,7.4s7.9,2.5,10.2,5.5
			c2.3,3,1.5,7.6,2.9,11.2c1.3,3.6,4.9,6.8,5,10.4c0.1,3.7-3.3,7.2-4.3,10.8s0,8.3-2,11.4c-2.1,3.1-6.8,3.9-9.8,6.2
			c-3,2.3-4.7,6.7-8.3,8c-3.6,1.3-7.9-0.9-11.5-0.7c-3.7,0.1-7.9,2.6-11.5,1.6c-3.6-1-5.8-5.3-8.9-7.4c-3.1-2.1-7.9-2.5-10.2-5.5
			c-2.3-3-1.5-6.7-2.8-10.4c1.1-4.9-0.7-5.6,1.4-10.1c2.1-4.6,4.8-3.3,7-7.9c2.1-4.6-0.6-5.8,1.6-10.4c2.1-4.6,5.7-3.3,7.1-8.1
			C369.5,231.7,366.7,230.4,369.7,226.4L369.7,226.4z"/>
		<path d="M366.2,295.6l3.6-2.4c-1.5-1.1-2.5-2.5-3.4-3.7c-0.5-0.6-1.1-1.4-1.4-1.6c-0.3-0.2-1.3-0.5-1.9-0.6
			c-2.3-0.6-5.6-1.6-7.9-4.5c-2.2-2.8-2.3-6.1-2.4-8.5c0-0.8-0.1-1.9-0.2-2.3c-0.5-1.5-0.5-3.1,0.2-4.6c0.7-1.4,1.9-2.5,3.4-3.1
			c0.6-0.2,1.3-0.4,2-0.4c2.5,0,4.7,1.6,5.6,3.9c0.8,2.1,0.9,4.2,0.9,5.9c0,0.4,0,1,0.1,1.5c0.5,0.2,1.1,0.3,1.5,0.4
			c1.4,0.4,3.5,1,5.4,2.2c1.8,1.2,3.1,2.8,4.1,4.2c0.2,0.3,0.7,0.9,1,1.2c0.4-0.1,1-0.3,1.3-0.5l0.3-0.1c1.5-0.6,3.4-1.2,5.5-1.3
			c0.1,0,0.3,0,0.4,0c2,0,3.8,0.5,5.2,0.9c0.5,0.1,1.2,0.3,1.7,0.5c0.3-0.4,0.7-1,1-1.4c0.9-1.4,2.1-3.1,3.7-4.4
			c1.8-1.4,3.8-2.1,5.3-2.7l0.1,0c0.4-0.1,0.9-0.3,1.3-0.5c0-0.5,0-1.2,0-1.5c-0.1-1.6-0.1-3.7,0.5-5.9c0.6-2.1,1.7-3.8,2.7-5.2
			c0.3-0.4,0.6-0.9,0.9-1.3c-0.3-0.4-0.7-0.9-0.9-1.2c-1.1-1.4-2.4-3-3.1-5.1c-0.8-2.1-0.8-4.2-0.9-5.8c0-0.4,0-1-0.1-1.6
			c-0.5-0.2-1.1-0.3-1.5-0.4c-1.4-0.4-3.5-1-5.4-2.2c-1.8-1.2-3.1-2.8-4.1-4.2c-0.2-0.3-0.7-0.9-1-1.3c-0.4,0.1-1,0.3-1.4,0.5
			l-0.3,0.1c-1.5,0.5-3.4,1.2-5.6,1.3c-0.1,0-0.3,0-0.4,0c-1.9,0-3.7-0.5-5.2-0.9c-0.6-0.2-1.6-0.5-2-0.5c-0.6,0.2-1.2,0.3-1.8,0.3
			c-2.5,0-4.8-1.6-5.6-3.9c-0.6-1.5-0.5-3.1,0.2-4.6c0.7-1.4,1.9-2.5,3.4-3.1c1.1-0.4,2.4-0.6,3.6-0.6c2.1,0,4.1,0.6,5.5,1
			c0.4,0.1,1.6,0.5,1.9,0.5c0.4,0,1.5-0.5,2-0.6c1.7-0.6,3.7-1.4,6.1-1.4c1,0,1.9,0.1,2.8,0.4c3.5,1,5.5,3.6,7,5.5l-2.3,2l2.4-1.8
			c0.4,0.5,1.1,1.4,1.3,1.6c0.3,0.2,1.3,0.5,1.9,0.6c2.2,0.6,5.6,1.6,7.9,4.5c2.2,2.8,2.3,6.1,2.4,8.6c0,0.7,0.1,1.9,0.2,2.2
			c0.1,0.3,0.8,1.2,1.2,1.7l0.1,0.1c1.5,1.9,3.5,4.5,3.7,8.1c0.1,3.7-1.7,6.4-3.1,8.4l-0.1,0.2c-0.3,0.5-0.9,1.4-1,1.7
			c-0.1,0.3,0,1.4,0,2.1c0.1,2.3,0.2,5.8-1.8,8.8c-2,3-5.1,4.1-7.4,5c-0.7,0.2-1.7,0.6-2,0.8c-0.2,0.2-0.8,1-1.1,1.5l-0.1,0.1
			c-1.3,1.9-3.2,4.9-6.8,6.1c-1.1,0.4-2.4,0.6-3.7,0.6c-2.1,0-4-0.5-5.5-1c-1.1-0.3-1.7-0.5-2-0.5c-0.3,0-1.5,0.5-2,0.6
			c-1.7,0.6-3.8,1.4-6.1,1.4H366.2z"/>
		<path d="M376.2,292.6c-0.7,0-1.3-0.1-2-0.3c-2.6-0.7-4.2-2.8-5.5-4.5c-0.7-0.9-1.4-1.8-2.1-2.3c-0.6-0.4-1.7-0.7-2.8-1
			c-2.1-0.6-4.7-1.3-6.3-3.4c-1.6-2.1-1.7-4.6-1.8-6.8c0-1.2-0.1-2.4-0.4-3.2c-0.6-1.6,0.2-3.3,1.8-3.8c1.5-0.6,3.3,0.2,3.8,1.8
			c0.6,1.7,0.7,3.4,0.7,5c0,1.3,0.1,2.8,0.5,3.3c0.5,0.6,1.9,1,3.2,1.4c1.5,0.4,3.1,0.9,4.5,1.8c1.4,1,2.5,2.3,3.4,3.5
			c0.8,1.1,1.8,2.3,2.5,2.5c0.7,0.2,2.1-0.3,3.4-0.8c1.4-0.5,3.1-1.1,4.8-1.2c1.7-0.1,3.3,0.4,4.7,0.8c1.4,0.4,2.8,0.8,3.6,0.5
			c0.7-0.3,1.6-1.5,2.4-2.7c0.8-1.3,1.8-2.7,3.1-3.7c1.4-1.1,3-1.7,4.4-2.2c1.3-0.5,2.7-1,3.1-1.6c0.4-0.6,0.4-2.1,0.3-3.5
			c-0.1-1.5-0.1-3.3,0.3-4.9c0.5-1.6,1.4-3.1,2.3-4.3c0.8-1.1,1.6-2.4,1.6-3.1c0-0.7-0.9-1.9-1.8-2.9c-1-1.2-2-2.6-2.7-4.3
			s-0.7-3.4-0.7-5c0-1.3-0.1-2.8-0.5-3.3c-0.5-0.6-1.9-1-3.2-1.4c-1.5-0.4-3.1-0.9-4.5-1.8c-1.4-1-2.5-2.3-3.4-3.5
			c-0.8-1.1-1.8-2.3-2.5-2.5c-0.7-0.2-2.1,0.3-3.4,0.8c-1.4,0.5-3.1,1.1-4.8,1.2c-1.7,0.1-3.3-0.4-4.7-0.8c-1.4-0.4-2.8-0.8-3.5-0.5
			c-1.6,0.6-3.3-0.2-3.8-1.8c-0.6-1.6,0.2-3.3,1.8-3.8c2.6-0.9,5.2-0.2,7.3,0.4c1.1,0.3,2.2,0.6,2.9,0.6c0.8,0,1.9-0.4,3-0.8
			c2.1-0.8,4.5-1.6,7-0.9c2.6,0.7,4.2,2.8,5.5,4.5c0.7,0.9,1.4,1.8,2.1,2.3c0.6,0.4,1.7,0.7,2.8,1c2.1,0.6,4.7,1.3,6.3,3.4
			c1.6,2.1,1.7,4.6,1.8,6.8c0,1.2,0.1,2.4,0.4,3.2s1,1.7,1.7,2.6c1.4,1.7,2.9,3.7,3,6.4c0.1,2.7-1.4,4.9-2.6,6.7
			c-0.6,0.9-1.3,1.9-1.5,2.6c-0.2,0.7-0.2,1.9-0.1,3c0.1,2.1,0.2,4.8-1.3,7c-1.5,2.2-3.9,3.1-6,3.9c-1.1,0.4-2.2,0.8-2.8,1.3
			c-0.6,0.4-1.2,1.4-1.8,2.3c-1.2,1.8-2.7,4.1-5.3,5c-2.6,1-5.2,0.2-7.3-0.4c-1.1-0.3-2.2-0.6-2.9-0.6c-0.8,0-1.9,0.4-3,0.8
			C379.6,292,377.9,292.6,376.2,292.6L376.2,292.6z"/>
		<path d="M244.1,604.2c-1.5,0-2.9-0.5-3.9-1.5l-48.8-42.1c-1.2-1-1.9-2.5-2.1-4.1c-0.1-1.6,0.4-3.1,1.4-4.3
			c1.1-1.3,2.8-2.1,4.5-2.1c1.4,0,2.8,0.5,3.9,1.4l48.8,42.1c2.5,2.1,2.8,5.9,0.6,8.4c-0.4,0.5-1,0.9-1.5,1.3v0.8L244.1,604.2z"/>
		<path d="M244.1,601.2c-0.7,0-1.4-0.2-1.9-0.7l-48.8-42.1c-1.3-1.1-1.4-3-0.3-4.2c1.1-1.3,3-1.4,4.2-0.3l48.8,42.1
			c1.3,1.1,1.4,3,0.3,4.2C245.7,600.8,244.9,601.2,244.1,601.2L244.1,601.2z"/>
		<path d="M240.3,610.6c-0.9,0-1.8-0.2-2.6-0.6l-100-48.5c-3-1.4-4.2-5-2.8-8c1-2,3.1-3.4,5.4-3.4c0.9,0,1.8,0.2,2.6,0.6l100,48.5
			c3,1.4,4.2,5,2.8,8C244.6,609.3,242.6,610.6,240.3,610.6z"/>
		<path d="M240.3,607.6c-0.4,0-0.9-0.1-1.3-0.3l-100-48.5c-1.5-0.7-2.1-2.5-1.4-4c0.7-1.5,2.5-2.1,4-1.4l100,48.5
			c1.5,0.7,2.1,2.5,1.4,4C242.4,607,241.4,607.6,240.3,607.6L240.3,607.6z"/>
		<path d="M103.3,574.3L103.3,574.3c-12.8-0.4-27-3.1-41.4-7.9c-18.6-6.2-35.1-15.3-46.5-25.5C2.7,529.5-2.4,517.6,1,507.5
			c3.4-10.2,14.6-16.6,31.6-18.1c2.6-0.2,5.3-0.3,8.1-0.3c13.6,0,29,2.7,44.4,7.9c41.3,13.8,67.5,39.1,60.9,59
			c-3.9,11.7-18.4,18.4-39.7,18.4H103.3z M40.7,501c-2.4,0-4.8,0.1-7,0.3c-11.6,1-19.5,4.8-21.3,10c-1.7,5.2,2.4,13,11,20.7
			c10.2,9.2,25.2,17.4,42.3,23.1c14,4.7,28.6,7.3,41,7.3c15.1,0,25.9-3.9,28-10.3c3.7-11-18.3-32.1-53.3-43.8
			C67.1,503.5,53,501,40.7,501z"/>
		<path d="M106.3,571.3c-12.8,0-27.8-2.5-43.4-7.7c-18.2-6.1-34.4-14.9-45.4-24.9C5.7,528.1,0.9,517.4,3.9,508.4
			c3-9,13.3-14.7,29-16.1c14.8-1.3,33.1,1.3,51.3,7.4c39,13,64.9,37.3,59,55.2l0,0C139.5,565.7,125.4,571.3,106.3,571.3L106.3,571.3
			z M40.7,498c-2.5,0-5,0.1-7.3,0.3c-13,1.1-21.7,5.5-23.9,12c-2.2,6.5,2.2,15.2,11.9,23.9c10.5,9.4,25.9,17.8,43.3,23.7
			c34.7,11.6,68,9.3,72.7-4.9c4.7-14.2-20.5-36-55.2-47.6C67.7,500.5,53.2,498,40.7,498L40.7,498z M140.3,553.9L140.3,553.9
			L140.3,553.9z"/>
		<path d="M111.3,563.6c-13.6,0-29-2.7-44.4-7.9c-41.3-13.8-67.5-39.1-60.9-59c3.9-11.7,18.4-18.5,39.7-18.5
			c13.6,0,28.9,2.7,44.3,7.9c18.6,6.2,35.1,15.3,46.5,25.5c12.7,11.4,17.8,23.3,14.4,33.4c-3.4,10.2-14.6,16.6-31.6,18.1
			c-0.3,0-0.6,0.1-0.9,0.1l0.3,0.3L111.3,563.6z M45.3,490.3c-15.1,0-25.9,3.9-28,10.3c-3.7,11,18.3,32.1,53.3,43.8
			c14.2,4.8,28.3,7.3,40.6,7.3c0,0,0,0,0,0c2.4,0,4.8-0.1,7-0.3c11.6-1,19.5-4.8,21.3-10c1.7-5.2-2.4-13-11-20.7
			c-10.2-9.2-25.2-17.4-42.3-23.1C72.3,492.9,57.7,490.3,45.3,490.3z"/>
		<path d="M111.3,560.6c-13.2,0-28.3-2.7-43.5-7.7c-39-13-64.9-37.3-59-55.2c6-17.9,41.2-21.7,80.3-8.7
			c18.2,6.1,34.4,14.9,45.4,24.9c11.7,10.5,16.5,21.3,13.5,30.3c-3,9-13.3,14.7-29,16.1C116.6,560.4,114,560.5,111.3,560.6
			L111.3,560.6z M45.3,487.3c-16.2,0-28.1,4.2-30.8,12.3c-4.7,14.2,20.5,36,55.2,47.6c17.5,5.8,34.8,8.4,48.9,7.1
			c13-1.1,21.7-5.5,23.9-12l0,0c2.2-6.5-2.2-15.2-11.9-23.9c-10.5-9.4-25.9-17.8-43.3-23.7C72.3,489.7,57.6,487.3,45.3,487.3
			L45.3,487.3z"/>
		<path d="M180.9,563.4l0.2-0.3c-11.5-1.3-25.4-7.4-38.7-17c-1.3-0.9-2.2-2.3-2.4-3.9c-0.3-1.6,0.1-3.2,1-4.5
			c1.1-1.6,2.9-2.5,4.9-2.5c1.3,0,2.5,0.4,3.5,1.1c13.2,9.5,26.8,15.1,36.4,15.1c3.7,0,6.4-0.9,7.6-2.4c0.6-0.8,1-1.9,1-3.3
			c0.4-9.6-11.2-25.7-27.5-38.2c-13.7-10.5-29.2-17.3-39.4-17.3c-1.8,0-3.3,0.2-4.7,0.6c-1.3,0.4-2.3,1-2.9,1.8
			c-1.7,2.3-0.9,6.3-0.2,8.5c0.9,3.1-0.8,6.5-4,7.5c-0.6,0.2-1.2,0.3-1.8,0.3c-2.6,0-4.9-1.7-5.7-4.2c-2.4-7.8-1.6-14.5,2.2-19.3
			c2.2-2.8,5.2-4.8,8.9-6c2.4-0.7,5.1-1.1,8-1.1c13.2,0,30.7,7.4,46.8,19.8c20.1,15.4,32.8,34.3,32.2,48.2
			c-0.1,3.9-1.3,7.3-3.5,10.1c-3.5,4.6-9.4,7-17,7H180.9z"/>
		<path d="M185.7,560.4c-11.3,0-26.6-5.8-41.7-16.7c-1.3-1-1.6-2.8-0.7-4.2c1-1.3,2.8-1.6,4.2-0.7c22.8,16.4,42.7,19,48.1,12.1
			c1-1.3,1.6-3,1.6-5c0.4-10.7-11.4-27.4-28.7-40.7c-17.3-13.3-36.5-20.4-46.7-17.2c-1.9,0.6-3.4,1.6-4.4,2.9
			c-2.4,3.2-1.7,7.9-0.7,11.2c0.5,1.6-0.4,3.2-2,3.7c-1.6,0.5-3.2-0.4-3.7-2c-2-6.8-1.5-12.5,1.7-16.6c1.8-2.3,4.3-4,7.4-4.9
			c12.1-3.8,33.1,3.5,52.1,18.2c19.1,14.6,31.6,33,31,45.7c-0.1,3.2-1.1,6.1-2.9,8.4C197.3,558.5,192.2,560.4,185.7,560.4
			L185.7,560.4z"/>
		<path d="M193.9,552.9c-3.4,0-7.2-0.5-11.2-1.5c-11.3-2.8-23.9-9.3-35.6-18.3c-11.7-9-21.3-19.5-26.9-29.6
			c-6.4-11.6-7.1-21.8-1.9-28.6c3.6-4.7,9.4-7.1,17-7.1c3.4,0,7.2,0.5,11.2,1.5c11.2,2.8,23.9,9.3,35.6,18.3
			c26.4,20.2,38.7,45.3,28.7,58.3C207.3,550.4,201.4,552.9,193.9,552.9z M135.4,479.7c-3.6,0-6.3,0.9-7.5,2.4
			c-2.1,2.7-1,8.6,2.8,15.5c4.8,8.7,13.2,17.9,23.7,25.9c10.5,8,21.5,13.8,31.2,16.1c3.1,0.8,5.9,1.2,8.3,1.2h0
			c3.6,0,6.2-0.9,7.5-2.4c4.2-5.4-4.1-24.3-26.5-41.5c-10.5-8-21.5-13.8-31.2-16.1C140.6,480.1,137.8,479.7,135.4,479.7z"/>
		<path d="M193.9,549.9c-3.2,0-6.7-0.5-10.5-1.4c-10.8-2.7-23.1-9-34.5-17.7c-11.4-8.8-20.7-18.9-26.1-28.7
			c-5.8-10.5-6.6-19.5-2.1-25.4c4.5-5.8,13.4-7.4,25-4.5c10.8,2.7,23.1,9,34.5,17.7c24.6,18.9,37,42.6,28.2,54.1
			C205.5,547.9,200.4,549.9,193.9,549.9z M135.4,476.7c-4.6,0-8,1.2-9.8,3.6c-2.9,3.8-1.9,10.6,2.6,18.8c5,9.1,13.7,18.6,24.5,26.9
			c10.8,8.3,22.2,14.2,32.3,16.7c9.1,2.3,16,1.4,18.9-2.4c5.7-7.4-4-28-27.1-45.7c-10.8-8.3-22.2-14.2-32.3-16.7
			C141,477.1,138,476.7,135.4,476.7L135.4,476.7z"/>
		<g>
			<path class="st0" d="M267,722.4c-19.3,0-35-15.7-35-35v-78.2c0-19.3,15.7-35,35-35c19.3,0,35,15.7,35,35v78.2
				C302,706.7,286.3,722.4,267,722.4z"/>
			<path class="st0" d="M267,577.2L267,577.2c17.7,0,32,14.3,32,32v78.2c0,17.7-14.3,32-32,32l0,0c-17.7,0-32-14.3-32-32v-78.2
				C234.9,591.5,249.3,577.2,267,577.2z"/>
			<path d="M267,725.4c-21,0-38-17.1-38-38v-78.2c0-21,17.1-38,38-38c21,0,38,17.1,38,38v78.2C305,708.3,287.9,725.4,267,725.4z
				 M267,583.1c-14.4,0-26,11.7-26,26v78.2c0,14.4,11.7,26,26,26c14.4,0,26-11.7,26-26v-78.2C293,594.8,281.3,583.1,267,583.1z"/>
			<path d="M267,722.4c-19.3,0-35-15.7-35-35v-78.2c0-19.3,15.7-35,35-35c19.3,0,35,15.7,35,35v78.2
				C302,706.7,286.3,722.4,267,722.4z M267,580.1c-16,0-29,13-29,29v78.2c0,16,13,29,29,29c16,0,29-13,29-29v-78.2
				C296,593.2,283,580.1,267,580.1z"/>
		</g>
	</g>
	<path d="M200.4,453.6c-1.9,0-3.7-0.9-4.9-2.5c-2.8-3.9-6.5-7.2-10.6-9.6c-4.2-2.4-8.9-4-13.7-4.5c-1.6-0.2-3-1-4-2.2
		c-1-1.3-1.4-2.8-1.3-4.4c0.3-3,2.9-5.3,5.9-5.3c0.2,0,0.5,0,0.7,0c6.4,0.7,12.8,2.8,18.4,6.1c5.6,3.2,10.5,7.7,14.3,12.9
		c0.9,1.3,1.3,2.9,1.1,4.5c-0.3,1.6-1.1,3-2.4,3.9C202.9,453.2,201.7,453.6,200.4,453.6z"/>
	<path d="M200.4,450.6c-0.9,0-1.8-0.4-2.4-1.2c-3.1-4.2-7.1-7.8-11.6-10.4c-4.5-2.6-9.7-4.3-14.9-4.9c-1.6-0.2-2.8-1.7-2.6-3.3
		c0.2-1.6,1.7-2.8,3.3-2.6c6,0.7,12,2.7,17.2,5.7c5.2,3,9.8,7.2,13.4,12.1c1,1.3,0.7,3.2-0.7,4.2C201.6,450.4,201,450.6,200.4,450.6
		z"/>
	<path d="M194.3,326.8c-1,0-2-0.3-3-0.8c-1.4-0.8-2.4-2.1-2.8-3.7c-0.4-1.5-0.2-3.2,0.6-4.6L318.5,93.1c1.1-1.8,3-3,5.2-3
		c1.1,0,2.1,0.3,3,0.8c1.4,0.8,2.4,2.1,2.8,3.6c0.4,1.5,0.2,3.2-0.6,4.6L199.4,323.8C198.4,325.6,196.4,326.8,194.3,326.8
		L194.3,326.8z"/>
	<path d="M194.3,323.8c-0.5,0-1-0.1-1.5-0.4c-1.4-0.8-1.9-2.6-1.1-4.1L321.1,94.6c0.8-1.4,2.6-1.9,4.1-1.1c1.4,0.8,1.9,2.6,1.1,4.1
		L196.8,322.3C196.3,323.2,195.3,323.8,194.3,323.8L194.3,323.8z"/>
	<path d="M413.2,123.1c-1.2,0-2.3-0.3-3.3-1c-2.8-1.8-3.5-5.6-1.7-8.3l43.5-66c-8.5-1.7-16.6-4.8-24-9.3
		c-10.6-6.5-17.7-14.6-22.3-21.2l-43.5,66c-1.1,1.7-3,2.7-5,2.7c-1.2,0-2.3-0.3-3.3-1c-2.8-1.8-3.5-5.5-1.7-8.3l48.8-74
		c1.1-1.7,3-2.7,5-2.7c0.1,0,0.2,0,0.3,0c2.1,0.1,4.1,1.4,5,3.3c3.6,7.2,10.5,17.4,22.9,25c10.8,6.6,21.4,8.4,28.4,8.8
		c2.1,0.1,4,1.4,5,3.3c1,2,0.8,4.2-0.3,6l-48.7,74C417.1,122.1,415.2,123.1,413.2,123.1L413.2,123.1L413.2,123.1z"/>
	<path d="M413.2,120.1c-0.6,0-1.1-0.2-1.6-0.5c-1.4-0.9-1.8-2.8-0.9-4.1l46-69.9c-7.7-1-17.5-3.5-27.5-9.6
		c-11.8-7.2-19.3-16.5-23.8-24.2l-46,69.9c-0.9,1.4-2.8,1.8-4.1,0.9c-1.4-0.9-1.8-2.8-0.9-4.1l48.8-74c0.6-0.9,1.6-1.4,2.7-1.3
		c1.1,0.1,2,0.7,2.5,1.6c3.8,7.6,11,18.3,24,26.2c11.3,6.9,22.4,8.8,29.8,9.2c1.1,0.1,2,0.7,2.5,1.6c0.5,1,0.4,2.1-0.2,3l-48.8,74
		C415.1,119.6,414.2,120.1,413.2,120.1L413.2,120.1z"/>
	<path d="M231.8,455.5c-4,0-7.8-1.3-11-3.6c-11-8.1-22.6-15.4-34.7-21.7c-9.8-5.1-20.1-9.6-30.5-13.4c-5-1.8-9-5.7-10.9-10.7
		c-1.9-5-1.5-10.5,1-15.2c0-0.1,0.1-0.2,0.2-0.4c3.2-5.9,9.4-9.6,16.1-9.6c1.4,0,2.9,0.2,4.2,0.5c14.4,3.4,28.4,8.7,41.4,15.7
		c13.4,7.2,25.8,16.1,36.8,26.4c5.9,5.6,7.5,14.4,3.8,21.7l-0.4,0.7C244.8,451.8,238.6,455.5,231.8,455.5z"/>
	<path d="M245.4,444.4c-4.4,8.3-15.2,10.6-22.7,5c-9.8-7.3-21.5-14.9-35.1-21.9c-10.9-5.7-21.3-10.1-30.9-13.6
		c-8.8-3.2-12.7-13.5-8.3-21.7c0-0.1,0.1-0.2,0.1-0.3c3.3-6.1,10.3-9.3,17.1-7.7c11.5,2.7,25.7,7.4,40.7,15.4
		c15.4,8.3,27.4,17.7,36.2,26c5.1,4.8,6.3,12.3,3,18.5L245.4,444.4L245.4,444.4z"/>
	<path d="M310,386.9c-6.3,0-12.3-2-17.4-5.8c-18.7-13.9-38.7-26.4-59.4-37.1c-16.8-8.8-34.4-16.5-52.3-23c-8-2.9-14.3-9.1-17.3-17
		c-3-7.9-2.4-16.7,1.6-24.2c0,0,0.2-0.4,0.2-0.4c5.1-9.5,15-15.4,25.7-15.4c2.3,0,4.5,0.3,6.7,0.8c24.4,5.8,47.9,14.7,70.1,26.6
		c22.6,12.1,43.6,27.1,62.3,44.7c9.6,9,12,23.4,5.7,35.1l-0.5,0.9l0,0C330.3,381.2,320.6,386.9,310,386.9z"/>
	<path d="M333.1,370.2c-7.6,14.1-25.8,18.1-38.6,8.5c-16.8-12.4-36.7-25.3-59.8-37.4c-18.5-9.6-36.3-17.2-52.6-23.2
		c-15-5.5-21.7-22.9-14.1-37c0.1-0.1,0.2-0.3,0.2-0.4c5.6-10.4,17.5-15.8,29-13.1c19.7,4.7,43.7,12.6,69.3,26.3
		c26.3,14.1,46.7,30.2,61.7,44.3c8.6,8.1,10.7,21,5.1,31.4L333.1,370.2L333.1,370.2z"/>
</g>
<circle cx="402.4" cy="689.5" r="30"/>
<circle cx="402.4" cy="689.5" r="27"/>
<path d="M356.9,111.7c-17.5,0-31.7-14.2-31.7-31.7s14.2-31.7,31.7-31.7s31.7,14.2,31.7,31.7S374.4,111.7,356.9,111.7z"/>
<circle cx="356.9" cy="80" r="28.7"/>
<g>
	<circle cx="267" cy="604.6" r="50.3"/>
	<circle cx="267" cy="604.6" r="47.3"/>
	<path class="st0" d="M267,658.7c-29.8,0-54-24.2-54-54s24.2-54,54-54s54,24.2,54,54S296.8,658.7,267,658.7z M267,564.1
		c-22.4,0-40.6,18.2-40.6,40.6s18.2,40.6,40.6,40.6c22.4,0,40.6-18.2,40.6-40.6S289.3,564.1,267,564.1z"/>
	<path class="st0" d="M267,655.7c-28.1,0-51-22.9-51-51c0-28.1,22.9-51,51-51c28.1,0,51,22.9,51,51C318,632.8,295.1,655.7,267,655.7
		z M267,561.1c-24,0-43.6,19.5-43.6,43.6c0,24,19.5,43.6,43.6,43.6c24,0,43.6-19.5,43.6-43.6C310.5,580.6,291,561.1,267,561.1z"/>
</g>
<circle cx="462" cy="42.8" r="12.7"/>
<circle cx="462" cy="42.8" r="9.7"/>
</svg>
