<?xml version="1.0" encoding="utf-8"?>
<!-- Generator: Adobe Illustrator 27.7.0, SVG Export Plug-In . SVG Version: 6.00 Build 0)  -->
<svg version="1.1" id="Layer_2" xmlns="http://www.w3.org/2000/svg" xmlns:xlink="http://www.w3.org/1999/xlink" x="0px" y="0px"
	 viewBox="0 0 482 468.6" style="enable-background:new 0 0 482 468.6;" xml:space="preserve">
<g id="Camada_1">
	<path d="M205.4,378.9H56.2C32.9,378.9,14,360,14,336.7V98h1v238.7c0,22.7,18.5,41.2,41.2,41.2h149.2L205.4,378.9L205.4,378.9z
		 M290.6,378.9H421v-1H290.6L290.6,378.9L290.6,378.9z M439.8,19.1h-339v1h339c22.7,0,41.2,18.5,41.2,41.2v275.4
		c0,1.4-0.1,2.8-0.2,4.2l1,0c0.1-1.4,0.2-2.8,0.2-4.3V61.3C482,38,463.1,19.1,439.8,19.1z M471.5,323V61.3
		c0-17.5-14.2-31.7-31.7-31.7H104.7c1.5,5.3,2.4,11,2.4,16.8c0,0.8,0,1.6-0.1,2.4h338.7c3.7,0,6.7,3,6.7,6.7v257
		C459.8,314,466.4,317.7,471.5,323L471.5,323z M58.2,105.8v228.9h352v-1h-351V105.8H58.2z M104.5,64.3h332.3v248.1h1V63.3H104.5
		C104.5,63.3,104.5,64.3,104.5,64.3z M89.8,99.6v198.9c0,3.8,3.1,6.8,6.8,6.8h21.5c3.8,0,6.8-3.1,6.8-6.8V99.6
		c0-3.8-3.1-6.8-6.8-6.8H96.7C92.9,92.7,89.8,95.8,89.8,99.6z M162.4,305.3c3.8,0,6.8-3.1,6.8-6.8V151c0-3.8-3.1-6.8-6.8-6.8h-21.5
		c-3.8,0-6.8,3.1-6.8,6.8v147.4c0,3.8,3.1,6.8,6.8,6.8H162.4L162.4,305.3z M206.6,305.3c3.8,0,6.8-3.1,6.8-6.8v-95.9
		c0-3.8-3.1-6.8-6.8-6.8H185c-3.8,0-6.8,3.1-6.8,6.8v95.9c0,3.8,3.1,6.8,6.8,6.8H206.6z M406.5,236.3h-56.9c-3.2,0-5.9-2.6-5.9-5.9
		l-0.1-56.9c0-3.5-3-6.2-6.5-5.9c-34.8,3.4-62.4,33.1-62.4,68.7c0,37.8,31.1,69,69,69c35.6,0,65.4-27.6,68.7-62.5
		C412.7,239.3,410,236.3,406.5,236.3L406.5,236.3z M413.8,94l-28.3,28.3c-0.8,0.8-2,0.8-2.8,0l-6.9-6.9l-4.4,4.4l17,11.2
		c0.2,0.1,0.2,0.4,0.1,0.5c-0.1,0.1-0.2,0.2-0.3,0.2c-0.1,0-0.1,0-0.2-0.1l-17.1-11.3l-18.4,18.4c-0.4,0.4-0.9,0.6-1.4,0.6
		s-1-0.2-1.4-0.6l-20.9-20.9l-17.4,17.4c-0.8,0.8-2,0.8-2.8,0L291,117.8l-16,10.6c-0.2,0.1-0.4,0.1-0.5-0.1
		c-0.1-0.2-0.1-0.4,0.1-0.5l15.9-10.5l-17.1-17.1c-0.8-0.8-0.8-2.1,0-2.8s2-0.8,2.8,0l17.7,17.7l9.6-6.4c0.1-0.1,0.3-0.1,0.4,0
		l15.3,10.1l18.2-12c0.1-0.1,0.3-0.1,0.4,0L358,120l6.7-4.4c0.1-0.1,0.3-0.1,0.4,0l2.9,1.9l6.4-6.4c0.8-0.8,2-0.8,2.8,0l6.9,6.9
		L411,91.2c0.8-0.8,2-0.8,2.8,0S414.6,93.2,413.8,94L413.8,94z M325.3,115.6l-5.9,3.9c-0.1,0.1-0.3,0.1-0.4,0l-15.3-10.1l-9.3,6.2
		l15.5,15.5L325.3,115.6L325.3,115.6z M367.4,118.1l-2.5-1.7l-6.7,4.4c-0.1,0.1-0.3,0.1-0.4,0l-20.2-13.3l-8.4,5.6
		c0.4,0.1,0.7,0.2,1,0.5l20.9,20.9L367.4,118.1z M247.5,92.7v212.5h1V92.7H247.5z M359,435.1c-1.5-3.4-4.9-5.6-8.6-5.6h-82.8v-61.1
		h144.8c-3.4-5.6-5.3-12.2-5.3-19.2H50.4c-3.7,0-6.7-3-6.7-6.7V107c-6.7-0.3-13.2-1.7-19.2-4v233.8c0,17.5,14.2,31.7,31.7,31.7
		h172.3v61.1h-82.8c-3.7,0-7.1,2.2-8.6,5.6l-9,20.2c-2.8,6.2,1.8,13.3,8.6,13.3h222.8c6.9,0,11.4-7,8.6-13.3L359,435.1L359,435.1z
		 M24.5,87.2c5.8,3.1,12.3,5,19.2,5.4c0.9,0.1,1.8,0.1,2.7,0.1c4.3,0,8.4-0.6,12.3-1.7c14-3.8,25.3-14,30.6-27.3
		c1.9-4.7,3.1-9.7,3.3-15c0-0.8,0.1-1.6,0.1-2.4c0-5.9-1.1-11.6-3.1-16.8c-1.4-3.6-3.2-6.9-5.4-10C75.8,7.7,62,0,46.4,0
		C20.8,0,0,20.8,0,46.4C0,59.6,5.6,71.6,14.5,80C17.5,82.9,20.9,85.3,24.5,87.2z M471.5,338.9c-3.2-8.4-10.3-14.9-19.1-17.3
		c-2.4-0.7-5-1-7.7-1s-5,0.3-7.3,0.9c-7.2,1.9-13.4,6.5-17.2,12.8c-2.7,4.4-4.2,9.5-4.2,15c0,7.4,2.8,14.1,7.4,19.2
		c5.3,5.9,12.9,9.5,21.4,9.5c0.7,0,1.3,0,2-0.1c0,0,0,0,0,0c6-0.4,11.5-2.7,16-6.2c0,0,0,0,0,0c6.5-5.2,10.7-13.3,10.7-22.4
		C473.4,345.6,472.7,342.1,471.5,338.9L471.5,338.9L471.5,338.9z"/>
</g>
</svg>
