<?xml version="1.0" encoding="UTF-8"?>
<svg id="Layer_2" data-name="Layer 2" xmlns="http://www.w3.org/2000/svg" viewBox="0 0 175.54 495.03">
  <defs>
    <style>
      .cls-1 {
        fill: #fff;
      }
    </style>
  </defs>
  <g id="Camada_1" data-name="Camada 1">
    <g>
      <path class="cls-1" d="M59.46,31.99v206.72c-1.97-.17-3.96-.26-5.97-.26h-.03V31.99c0-1.66,1.34-3,3-3s3,1.34,3,3Z"/>
      <path class="cls-1" d="M160.5,31.99v43.9c-1.04-.13-2.1-.19-3.18-.19-.95,0-1.89.05-2.82.15V31.99c0-1.66,1.34-3,3-3s3,1.34,3,3Z"/>
      <path class="cls-1" d="M157.32,129.64c1.08,0,2.14-.06,3.18-.19v312.06c0,29.51-24.01,53.52-53.52,53.52s-53.52-24.01-53.52-53.52v-64.09h.03c2.01,0,4-.09,5.97-.26v64.35c0,26.2,21.32,47.52,47.52,47.52s47.52-21.32,47.52-47.52V129.49c.93.1,1.87.15,2.82.15Z"/>
    </g>
    <path class="cls-1" d="M60.5,0h92.96c3.87,0,7.01,3.14,7.01,7.01v11.55c0,1.33-1.08,2.41-2.41,2.41H55.9c-1.33,0-2.41-1.08-2.41-2.41V7.01c0-3.87,3.14-7.01,7.01-7.01Z"/>
    <path class="cls-1" d="M71.67,20.97h70.62v7.78c0,3.34-2.72,6.06-6.06,6.06h-58.5c-3.34,0-6.06-2.72-6.06-6.06v-7.78h0Z"/>
    <g>
      <path class="cls-1" d="M133.3,99.67c-.14.98-.2,1.98-.2,3s.06,2.02.2,3h-26.32c-1.66,0-3-1.34-3-3s1.34-3,3-3h26.32Z"/>
      <path class="cls-1" d="M139.35,102.67c0,1.02.08,2.02.25,3h-.25c-.17-.97-.25-1.98-.25-3s.08-2.03.25-3h.25c-.16.98-.25,1.98-.25,3Z"/>
    </g>
    <path class="cls-1" d="M142.29,152.41h-35.31c-1.66,0-3-1.34-3-3s1.34-3,3-3h35.31c1.66,0,3,1.34,3,3s-1.34,3-3,3Z"/>
    <path class="cls-1" d="M142.29,199.14h-35.31c-1.66,0-3-1.34-3-3s1.34-3,3-3h35.31c1.66,0,3,1.34,3,3s-1.34,3-3,3Z"/>
    <path class="cls-1" d="M142.29,245.88h-35.31c-1.66,0-3-1.34-3-3s1.34-3,3-3h35.31c1.66,0,3,1.34,3,3s-1.34,3-3,3Z"/>
    <path class="cls-1" d="M157.32,84.45c-9.02,0-16.54,6.59-17.97,15.22-.17.97-.25,1.98-.25,3s.08,2.03.25,3c1.43,8.63,8.95,15.22,17.97,15.22,10.05,0,18.22-8.17,18.22-18.22s-8.17-18.22-18.22-18.22ZM160.5,120.36c-1.03.18-2.09.28-3.18.28-.96,0-1.9-.08-2.82-.22-7.6-1.2-13.63-7.17-14.9-14.75-.17-.98-.25-1.98-.25-3s.09-2.02.25-3c1.27-7.58,7.3-13.55,14.9-14.75.92-.14,1.86-.22,2.82-.22,1.09,0,2.15.1,3.18.28,8.41,1.5,14.79,8.85,14.79,17.69s-6.38,16.19-14.79,17.69Z"/>
    <path class="cls-1" d="M175.29,102.67c0,8.85-6.38,16.19-14.79,17.69-1.03.18-2.09.28-3.18.28-.96,0-1.9-.08-2.82-.22-7.6-1.2-13.63-7.17-14.9-14.75-.17-.98-.25-1.98-.25-3s.09-2.02.25-3c1.27-7.58,7.3-13.55,14.9-14.75.92-.14,1.86-.22,2.82-.22,1.09,0,2.15.1,3.18.28,8.41,1.5,14.79,8.85,14.79,17.69Z"/>
    <path class="cls-1" d="M106.98,307.93c0,27.53-20.79,50.19-47.52,53.15-1.96.23-3.95.34-5.97.34h-.03c-29.53-.02-53.46-23.95-53.46-53.49s23.93-53.46,53.46-53.48h.03c2.02,0,4.01.11,5.97.34,26.73,2.96,47.52,25.62,47.52,53.14Z"/>
  </g>
</svg>