<?xml version="1.0" encoding="UTF-8"?>
<svg id="Layer_2" data-name="Layer 2" xmlns="http://www.w3.org/2000/svg" viewBox="0 0 304.28 368.09">
  <defs>
    <style>
      .cls-1 {
        fill: #fff;
      }
    </style>
  </defs>
  <g id="Camada_1" data-name="Camada 1">
    <g>
      <path class="cls-1" d="M260.18,353.11H14.52c-5.14,0-9.78-2.63-12.43-7.03-2.65-4.4-2.79-9.74-.38-14.28L111.14,125.93c.69-1.29,1.07-2.74,1.11-4.2.04-1.38,1.15-2.47,2.57-2.43,1.38.04,2.47,1.19,2.43,2.57-.06,2.23-.65,4.45-1.69,6.41L6.13,334.15c-1.58,2.97-1.49,6.47.25,9.35,1.73,2.88,4.78,4.61,8.14,4.61h245.66c3.34,0,6.37-1.7,8.11-4.56,1.74-2.85,1.86-6.33.33-9.3l-106.28-205.97c-1.03-2-1.59-4.24-1.61-6.48l-1.23-107.41c-.06-5.18-4.32-9.39-9.5-9.39-1.38,0-2.5-1.12-2.5-2.5s1.12-2.5,2.5-2.5c7.9,0,14.41,6.43,14.5,14.33l1.23,107.41c.02,1.47.38,2.94,1.06,4.25l106.28,205.97c2.34,4.53,2.15,9.84-.5,14.19-2.65,4.36-7.28,6.96-12.38,6.96Z"/>
      <path class="cls-1" d="M255.25,336.11H19.51c-.28,0-.5-.22-.5-.5s.22-.5.5-.5h234.92l-103.65-200.86c-1.95-3.79-3.01-8.04-3.06-12.29,0-.28.22-.5.49-.51h0c.27,0,.5.22.5.49.05,4.1,1.06,8.2,2.95,11.85l104.03,201.59c.08.16.07.34-.02.49-.09.15-.25.24-.43.24Z"/>
      <circle class="cls-1" cx="275.66" cy="339.47" r="28.62"/>
      <circle class="cls-1" cx="58.95" cy="224.91" r="13.74"/>
      <circle class="cls-1" cx="107.13" cy="125.87" r="48.19"/>
      <g>
        <path class="cls-1" d="M181.93,227.41h-35.76c-1.38,0-2.5-1.12-2.5-2.5s1.12-2.5,2.5-2.5h35.76c1.38,0,2.5,1.12,2.5,2.5s-1.12,2.5-2.5,2.5Z"/>
        <path class="cls-1" d="M196.93,257.05h-35.76c-1.38,0-2.5-1.12-2.5-2.5s1.12-2.5,2.5-2.5h35.76c1.38,0,2.5,1.12,2.5,2.5s-1.12,2.5-2.5,2.5Z"/>
        <path class="cls-1" d="M211.93,286.68h-35.76c-1.38,0-2.5-1.12-2.5-2.5s1.12-2.5,2.5-2.5h35.76c1.38,0,2.5,1.12,2.5,2.5s-1.12,2.5-2.5,2.5Z"/>
      </g>
    </g>
  </g>
</svg>