<svg width="110" height="110" viewBox="0 0 110 110" fill="none" xmlns="http://www.w3.org/2000/svg">
<path d="M17.2587 97.6658C18.8072 97.6658 20.0626 96.4043 20.0626 94.8482C20.0626 93.2921 18.8072 92.0306 17.2587 92.0306C15.7101 92.0306 14.4548 93.2921 14.4548 94.8482C14.4548 96.4043 15.7101 97.6658 17.2587 97.6658Z" fill="white"/>
<path d="M92.2047 17.9654C93.7533 17.9654 95.0086 16.7039 95.0086 15.1478C95.0086 13.5916 93.7533 12.3301 92.2047 12.3301C90.6562 12.3301 89.4008 13.5916 89.4008 15.1478C89.4008 16.7039 90.6562 17.9654 92.2047 17.9654Z" fill="white"/>
<path d="M54.7317 110C24.552 110 0 85.3277 0 55C0 24.6723 24.552 0 54.7317 0C84.9114 0 109.463 24.6723 109.463 55C109.463 85.3277 84.9114 110 54.7317 110ZM54.7317 0.678319C24.9234 0.678319 0.67501 25.0456 0.67501 55C0.67501 84.9544 24.9234 109.322 54.7317 109.322C84.54 109.322 108.788 84.9544 108.788 55C108.788 25.0456 84.54 0.678319 54.7317 0.678319Z" fill="white"/>
<path d="M54.7317 89.9675C35.5439 89.9675 19.9348 74.2819 19.9348 55C19.9348 35.7181 35.5439 20.0365 54.7317 20.0365C73.9196 20.0365 89.5287 35.7221 89.5287 55C89.5287 74.2779 73.9196 89.9675 54.7317 89.9675ZM54.7317 20.2894C35.6836 20.2894 20.1904 35.8586 20.1904 55C20.1904 74.1414 35.6876 89.7107 54.7317 89.7107C73.7758 89.7107 89.273 74.1374 89.273 55C89.273 35.8626 73.7758 20.2894 54.7317 20.2894Z" fill="white"/>
</svg>
