<svg width="409" height="110" viewBox="0 0 409 110" fill="none" xmlns="http://www.w3.org/2000/svg">
<path d="M137.307 58.3193V27.0966H140.885V55.1766H156.239V58.3153H137.307V58.3193Z" fill="black"/>
<path d="M157.098 58.3193L169.463 27.0966H174.264L186.674 58.3193H182.824L179.565 50.0832H163.983L160.768 58.3193H157.098ZM165.206 46.9886H178.338L174.264 36.565C174.172 36.3242 174.037 35.9589 173.857 35.4733C173.677 34.9876 173.474 34.4337 173.246 33.8116C173.018 33.1894 172.794 32.5593 172.567 31.9211C172.339 31.2829 172.119 30.709 171.908 30.1912H171.592C171.413 30.7692 171.177 31.4515 170.889 32.2382C170.602 33.0289 170.314 33.8076 170.031 34.5822C169.743 35.3569 169.495 36.0151 169.284 36.561L165.21 46.9846L165.206 46.9886Z" fill="black"/>
<path d="M191.156 58.3193V27.0966H206.781C208.594 27.0966 210.14 27.4017 211.422 28.0077C212.704 28.6138 213.695 29.4808 214.389 30.6006C215.084 31.7244 215.432 33.057 215.432 34.6063C215.432 35.7903 215.228 36.8821 214.821 37.8815C214.413 38.8849 213.838 39.7238 213.099 40.4061C212.36 41.0884 211.49 41.5982 210.495 41.9313V42.1119C211.554 42.3568 212.52 42.7782 213.395 43.3843C214.27 43.9904 214.973 44.8172 215.5 45.8648C216.027 46.9124 216.291 48.2409 216.291 49.8464C216.291 51.9094 215.875 53.5631 215.045 54.8073C214.214 56.0516 213.091 56.9467 211.669 57.4925C210.252 58.0384 208.622 58.3113 206.777 58.3113H191.152L191.156 58.3193ZM194.734 40.7513H206.237C207.324 40.7513 208.282 40.5305 209.113 40.093C209.944 39.6515 210.599 39.0214 211.082 38.2026C211.566 37.3838 211.805 36.4446 211.805 35.3809C211.805 33.6229 211.33 32.3185 210.379 31.4676C209.429 30.6167 208.167 30.1912 206.597 30.1912H194.73V40.7513H194.734ZM194.734 55.2248H207.008C208.698 55.2248 210.064 54.7913 211.106 53.9283C212.149 53.0654 212.668 51.6004 212.668 49.5373C212.668 48.2329 212.44 47.1572 211.989 46.3063C211.538 45.4554 210.871 44.8332 209.996 44.4399C209.121 44.0466 208.019 43.8499 206.689 43.8499H194.73V55.2288L194.734 55.2248Z" fill="black"/>
<path d="M233.545 58.8652C231.824 58.8652 230.178 58.6766 228.609 58.2953C227.039 57.918 225.649 57.324 224.443 56.5212C223.237 55.7185 222.282 54.715 221.591 53.519C220.896 52.3189 220.548 50.902 220.548 49.2644C220.548 49.0838 220.556 48.8992 220.568 48.7186C220.58 48.5379 220.592 48.4015 220.592 48.3092H226.528C226.528 48.3694 226.52 48.4858 226.504 48.6503C226.488 48.8189 226.484 48.9634 226.484 49.0838C226.484 50.0872 226.771 50.9422 227.342 51.6566C227.914 52.371 228.744 52.9169 229.835 53.2942C230.921 53.6755 232.203 53.8641 233.685 53.8641C234.68 53.8641 235.566 53.8039 236.333 53.6835C237.104 53.5631 237.767 53.3865 238.326 53.1617C238.886 52.933 239.345 52.66 239.708 52.3429C240.072 52.0259 240.335 51.6686 240.503 51.2753C240.667 50.8819 240.751 50.4565 240.751 50.0029C240.751 49.1239 240.479 48.3934 239.936 47.8195C239.393 47.2415 238.662 46.7558 237.739 46.3625C236.817 45.9692 235.774 45.6119 234.612 45.2948C233.45 44.9778 232.259 44.6486 231.033 44.3155C229.811 43.9824 228.617 43.581 227.454 43.1074C226.292 42.6378 225.25 42.0678 224.331 41.4015C223.408 40.7353 222.677 39.8924 222.134 38.8769C221.591 37.8614 221.319 36.6413 221.319 35.2124C221.319 33.7835 221.627 32.4831 222.246 31.3913C222.865 30.2996 223.74 29.3965 224.874 28.6821C226.004 27.9716 227.327 27.4378 228.836 27.0886C230.346 26.7394 231.992 26.5668 233.773 26.5668C235.435 26.5668 236.996 26.7434 238.458 27.0886C239.924 27.4378 241.214 27.9837 242.329 28.7262C243.447 29.4688 244.322 30.408 244.957 31.5479C245.592 32.6837 245.907 34.0444 245.907 35.6218V36.1677H240.064V35.7141C240.064 34.8351 239.8 34.0926 239.273 33.4825C238.746 32.8764 238.003 32.4068 237.052 32.0737C236.102 31.7405 234.991 31.5719 233.725 31.5719C232.367 31.5719 231.205 31.7004 230.238 31.9573C229.272 32.2141 228.533 32.5954 228.018 33.0931C227.502 33.5949 227.247 34.209 227.247 34.9354C227.247 35.6619 227.518 36.3322 228.061 36.846C228.605 37.3637 229.336 37.8012 230.258 38.1665C231.181 38.5317 232.219 38.8649 233.386 39.1659C234.548 39.4709 235.738 39.7961 236.964 40.1452C238.187 40.4944 239.381 40.8958 240.543 41.3534C241.705 41.8069 242.748 42.3769 243.667 43.0592C244.585 43.7415 245.32 44.5844 245.863 45.5838C246.407 46.5873 246.678 47.7834 246.678 49.1801C246.678 51.5161 246.111 53.3985 244.981 54.8234C243.85 56.2483 242.293 57.2798 240.315 57.918C238.338 58.5562 236.082 58.8733 233.545 58.8733V58.8652Z" fill="black"/>
<path d="M259.316 58.3193V45.6199L247.361 27.0966H254.155L262.351 40.2937H262.579L270.687 27.0966H277.117L265.207 45.6199V58.3193H259.32H259.316Z" fill="black"/>
<path d="M281.012 58.3193V27.0966H286.628L299.896 45.5276C300.048 45.7082 300.228 45.9611 300.439 46.2782C300.651 46.5953 300.847 46.9083 301.03 47.2094C301.21 47.5144 301.33 47.7552 301.394 47.9358H301.622V27.0926H307.281V58.3153H301.709L288.393 39.7478C288.149 39.3826 287.874 38.9371 287.554 38.4073C287.239 37.8775 287.019 37.5042 286.895 37.2915H286.667V58.3193H281.008H281.012Z" fill="black"/>
<path d="M327.839 58.8652C324.668 58.8652 321.96 58.3033 319.711 57.1795C317.462 56.0556 315.741 54.3056 314.547 51.9215C313.352 49.5414 312.757 46.4668 312.757 42.706C312.757 37.2152 314.087 33.1493 316.743 30.5083C319.399 27.8673 323.098 26.5468 327.839 26.5468C330.403 26.5468 332.724 26.9883 334.789 27.8673C336.858 28.7463 338.503 30.0748 339.726 31.8489C340.948 33.6229 341.559 35.8787 341.559 38.608H335.536C335.536 37.0908 335.212 35.8104 334.561 34.7628C333.91 33.7153 333.011 32.9205 331.865 32.3747C330.719 31.8288 329.405 31.5559 327.927 31.5559C325.874 31.5559 324.168 31.9572 322.81 32.76C321.452 33.5627 320.446 34.7548 319.799 36.3322C319.148 37.9096 318.824 39.8683 318.824 42.2043V43.2037C318.824 45.5718 319.148 47.5425 319.799 49.1199C320.446 50.6973 321.444 51.8814 322.787 52.6721C324.129 53.4628 325.846 53.8561 327.927 53.8561C329.497 53.8561 330.871 53.5912 332.049 53.0614C333.227 52.5316 334.138 51.7409 334.789 50.6933C335.44 49.6457 335.763 48.3653 335.763 46.8481H341.559C341.559 49.5775 340.956 51.8332 339.746 53.6073C338.539 55.3813 336.898 56.7018 334.833 57.5688C332.764 58.4317 330.431 58.8652 327.835 58.8652H327.839Z" fill="black"/>
<path d="M346.815 58.3193V27.0966H363.163C365.456 27.0966 367.361 27.49 368.871 28.2807C370.381 29.0714 371.511 30.1912 372.266 31.6482C373.021 33.1052 373.396 34.819 373.396 36.7898C373.396 38.7605 372.945 40.6188 372.038 42.1842C371.132 43.7495 369.801 44.9215 368.052 45.7122L374.483 58.3193H368.052L362.344 46.7117H352.699V58.3193H346.811H346.815ZM352.703 41.7547H362.712C364.222 41.7547 365.384 41.3172 366.199 40.4342C367.014 39.5552 367.421 38.339 367.421 36.7938C367.421 35.7943 367.241 34.9515 366.878 34.2691C366.514 33.5868 365.987 33.061 365.292 32.6998C364.597 32.3345 363.734 32.1539 362.712 32.1539H352.703V41.7587V41.7547Z" fill="black"/>
<path d="M393.331 58.8652C390.1 58.8652 387.308 58.2832 384.951 57.1112C382.595 55.9432 380.793 54.1612 379.539 51.765C378.285 49.3688 377.658 46.3505 377.658 42.71C377.658 39.0696 378.285 36.0111 379.539 33.631C380.793 31.2508 382.595 29.4728 384.951 28.3048C387.304 27.1368 390.1 26.5508 393.331 26.5508C396.562 26.5508 399.39 27.1368 401.731 28.3048C404.071 29.4728 405.869 31.2468 407.119 33.631C408.373 36.0151 409 39.0415 409 42.71C409 46.3786 408.373 49.3688 407.119 51.765C405.865 54.1612 404.067 55.9432 401.731 57.1112C399.39 58.2792 396.59 58.8652 393.331 58.8652ZM393.331 53.8601C394.901 53.8601 396.283 53.6313 397.477 53.1778C398.671 52.7242 399.674 52.0459 400.488 51.1509C401.303 50.2558 401.922 49.148 402.346 47.8275C402.769 46.507 402.981 44.9818 402.981 43.2519V42.2484C402.981 40.4904 402.769 38.9411 402.346 37.6046C401.922 36.268 401.303 35.1562 400.488 34.2611C399.674 33.3661 398.671 32.6918 397.477 32.2342C396.283 31.7807 394.901 31.5519 393.331 31.5519C391.761 31.5519 390.379 31.7807 389.185 32.2342C387.991 32.6878 386.988 33.3661 386.173 34.2611C385.359 35.1562 384.748 36.272 384.34 37.6046C383.933 38.9411 383.729 40.4864 383.729 42.2484V43.2519C383.729 44.9818 383.933 46.507 384.34 47.8275C384.748 49.148 385.359 50.2558 386.173 51.1509C386.988 52.0459 387.991 52.7202 389.185 53.1778C390.375 53.6313 391.757 53.8601 393.331 53.8601Z" fill="black"/>
<path d="M61.4379 36.0432C63.0116 46.0374 69.2424 50.2076 81.6003 55.1525C91.1902 58.9816 95.1285 63.2241 95.8833 71.1432H87.4517C84.7237 65.1587 77.5942 62.5578 70.6484 60.0292C58.8856 55.7305 53.7372 48.5379 53.5495 36.0472H61.4379V36.0432Z" fill="black"/>
<path d="M53.5455 63.6133V71.1391H20.1904V36.0471H27.9869V63.6133H53.5455Z" fill="black"/>
<path d="M17.2587 97.6658C18.8072 97.6658 20.0626 96.4043 20.0626 94.8482C20.0626 93.2921 18.8072 92.0306 17.2587 92.0306C15.7101 92.0306 14.4548 93.2921 14.4548 94.8482C14.4548 96.4043 15.7101 97.6658 17.2587 97.6658Z" fill="black"/>
<path d="M92.2047 17.9654C93.7533 17.9654 95.0086 16.7039 95.0086 15.1478C95.0086 13.5916 93.7533 12.3301 92.2047 12.3301C90.6562 12.3301 89.4008 13.5916 89.4008 15.1478C89.4008 16.7039 90.6562 17.9654 92.2047 17.9654Z" fill="black"/>
<path d="M54.7317 110C24.552 110 0 85.3277 0 55C0 24.6723 24.552 0 54.7317 0C84.9114 0 109.463 24.6723 109.463 55C109.463 85.3277 84.9114 110 54.7317 110ZM54.7317 0.678319C24.9234 0.678319 0.67501 25.0456 0.67501 55C0.67501 84.9544 24.9234 109.322 54.7317 109.322C84.54 109.322 108.788 84.9544 108.788 55C108.788 25.0456 84.54 0.678319 54.7317 0.678319Z" fill="black"/>
<path d="M54.7317 89.9675C35.5439 89.9675 19.9348 74.2819 19.9348 55C19.9348 35.7181 35.5439 20.0365 54.7317 20.0365C73.9196 20.0365 89.5287 35.7221 89.5287 55C89.5287 74.2779 73.9196 89.9675 54.7317 89.9675ZM54.7317 20.2894C35.6836 20.2894 20.1904 35.8586 20.1904 55C20.1904 74.1414 35.6876 89.7107 54.7317 89.7107C73.7758 89.7107 89.273 74.1374 89.273 55C89.273 35.8626 73.7758 20.2894 54.7317 20.2894Z" fill="black"/>
<path d="M266.018 80.5714V67.0853H270.16C271.194 67.0853 272.041 67.2579 272.7 67.6071C273.359 67.9523 273.842 68.4179 274.146 69.0039C274.453 69.5899 274.605 70.2522 274.605 70.9987C274.605 71.7453 274.445 72.3754 274.126 72.9735C273.806 73.5715 273.315 74.0451 272.648 74.3983C271.985 74.7515 271.122 74.9281 270.06 74.9281H267.356V80.5714H266.014H266.018ZM267.36 73.8284H270.064C271.15 73.8284 271.949 73.5635 272.46 73.0377C272.972 72.5119 273.227 71.8295 273.227 70.9947C273.227 70.1598 272.98 69.4574 272.48 68.9638C271.981 68.4701 271.17 68.2212 270.044 68.2212H267.36V73.8284ZM273.151 80.5714L270.14 74.5027H271.673L274.761 80.5714H273.151Z" fill="black"/>
<path d="M277.273 80.5714V67.0853H285.421V68.2011H278.615V73.2303H284.846V74.3461H278.615V79.4516H285.421V80.5674H277.273V80.5714Z" fill="black"/>
<path d="M292.227 80.8042C291.245 80.8042 290.39 80.6236 289.667 80.2663C288.944 79.9051 288.393 79.4034 288.009 78.7532C287.626 78.1029 287.434 77.3644 287.434 76.5296H288.832C288.832 77.0955 288.96 77.6133 289.216 78.0909C289.471 78.5645 289.847 78.9498 290.346 79.2388C290.845 79.5278 291.472 79.6723 292.223 79.6723C292.886 79.6723 293.446 79.5599 293.901 79.3352C294.356 79.1104 294.704 78.8134 294.947 78.4401C295.191 78.0668 295.311 77.6454 295.311 77.1677C295.311 76.6018 295.191 76.1483 294.955 75.7991C294.72 75.4539 294.396 75.1689 293.989 74.9522C293.581 74.7354 293.118 74.5428 292.599 74.3822C292.08 74.2217 291.536 74.0451 290.961 73.8524C289.927 73.4912 289.164 73.0497 288.68 72.5239C288.193 71.9981 287.946 71.3238 287.934 70.501C287.934 69.7945 288.097 69.1684 288.421 68.6225C288.748 68.0767 289.224 67.6472 289.851 67.3301C290.478 67.013 291.217 66.8565 292.076 66.8565C292.934 66.8565 293.633 67.013 294.252 67.3301C294.871 67.6432 295.355 68.0807 295.698 68.6386C296.042 69.1965 296.217 69.8347 296.217 70.5572H294.835C294.835 70.1478 294.732 69.7464 294.52 69.353C294.308 68.9597 293.997 68.6386 293.581 68.3897C293.166 68.1409 292.639 68.0125 292 68.0125C291.476 68.0125 291.013 68.1048 290.61 68.2934C290.206 68.478 289.891 68.751 289.659 69.1042C289.427 69.4574 289.316 69.8708 289.316 70.3484C289.316 70.8261 289.419 71.1913 289.623 71.4843C289.827 71.7813 290.114 72.0222 290.486 72.2148C290.857 72.4075 291.293 72.5841 291.788 72.7446C292.283 72.9052 292.842 73.0898 293.457 73.2945C294.085 73.5113 294.64 73.7762 295.127 74.0852C295.614 74.3943 295.998 74.7876 296.277 75.2693C296.557 75.7509 296.701 76.357 296.701 77.0915C296.701 77.7216 296.537 78.3197 296.213 78.8816C295.89 79.4435 295.391 79.9091 294.728 80.2704C294.065 80.6316 293.234 80.8082 292.235 80.8082L292.227 80.8042Z" fill="black"/>
<path d="M303.806 80.8042C302.9 80.8042 302.077 80.6236 301.342 80.2664C300.607 79.9051 300.024 79.3432 299.589 78.5806C299.153 77.818 298.937 76.8427 298.937 75.6626V67.0893H300.279V75.6827C300.279 76.5938 300.431 77.3444 300.731 77.9264C301.03 78.5124 301.45 78.9378 301.985 79.2067C302.52 79.4757 303.135 79.6121 303.826 79.6121C304.517 79.6121 305.144 79.4757 305.668 79.2067C306.191 78.9378 306.602 78.5084 306.894 77.9264C307.189 77.3404 307.333 76.5938 307.333 75.6827V67.0893H308.675V75.6626C308.675 76.8427 308.46 77.818 308.024 78.5806C307.589 79.3432 307.006 79.9051 306.271 80.2664C305.536 80.6276 304.713 80.8042 303.806 80.8042Z" fill="black"/>
<path d="M311.511 80.5714V67.0853H312.853V79.4717H319.2V80.5714H311.511Z" fill="black"/>
<path d="M322.499 80.5714V68.2011H318.473V67.0853H327.867V68.2011H323.841V80.5714H322.499Z" fill="black"/>
<path d="M333.75 80.8042C332.768 80.8042 331.913 80.6236 331.19 80.2663C330.467 79.9051 329.916 79.4034 329.533 78.7532C329.149 78.1029 328.957 77.3644 328.957 76.5296H330.355C330.355 77.0955 330.483 77.6133 330.739 78.0909C330.994 78.5645 331.37 78.9498 331.869 79.2388C332.368 79.5278 332.995 79.6723 333.746 79.6723C334.409 79.6723 334.969 79.5599 335.424 79.3352C335.879 79.1104 336.227 78.8134 336.47 78.4401C336.714 78.0668 336.834 77.6454 336.834 77.1677C336.834 76.6018 336.714 76.1483 336.478 75.7991C336.243 75.4539 335.919 75.1689 335.512 74.9522C335.104 74.7354 334.641 74.5428 334.122 74.3822C333.603 74.2217 333.059 74.0451 332.484 73.8524C331.45 73.4912 330.687 73.0497 330.204 72.5239C329.716 71.9981 329.469 71.3238 329.457 70.501C329.457 69.7945 329.62 69.1684 329.944 68.6225C330.271 68.0767 330.747 67.6472 331.374 67.3301C332.001 67.013 332.74 66.8565 333.599 66.8565C334.457 66.8565 335.156 67.013 335.775 67.3301C336.394 67.6432 336.878 68.0807 337.221 68.6386C337.565 69.1965 337.741 69.8347 337.741 70.5572H336.359C336.359 70.1478 336.255 69.7464 336.043 69.353C335.831 68.9597 335.52 68.6386 335.104 68.3897C334.689 68.1409 334.162 68.0125 333.523 68.0125C332.999 68.0125 332.536 68.1048 332.133 68.2934C331.729 68.478 331.414 68.751 331.182 69.1042C330.95 69.4574 330.839 69.8708 330.839 70.3484C330.839 70.8261 330.943 71.1913 331.146 71.4843C331.35 71.7813 331.637 72.0222 332.009 72.2148C332.38 72.4075 332.816 72.5841 333.311 72.7446C333.806 72.9052 334.365 73.0898 334.981 73.2945C335.608 73.5113 336.163 73.7762 336.65 74.0852C337.137 74.3943 337.521 74.7876 337.8 75.2693C338.08 75.7509 338.224 76.357 338.224 77.0915C338.224 77.7216 338.06 78.3197 337.737 78.8816C337.413 79.4435 336.914 79.9091 336.251 80.2704C335.588 80.6316 334.757 80.8082 333.758 80.8082L333.75 80.8042Z" fill="black"/>
<path d="M351.64 80.8042C350.35 80.8042 349.232 80.5112 348.285 79.9292C347.338 79.3432 346.612 78.5284 346.1 77.4809C345.589 76.4333 345.333 75.2171 345.333 73.8284C345.333 72.4396 345.589 71.2235 346.1 70.1759C346.612 69.1283 347.342 68.3135 348.297 67.7275C349.248 67.1415 350.366 66.8525 351.644 66.8525C353.154 66.8525 354.376 67.2098 355.315 67.9202C356.253 68.6346 356.856 69.6381 357.128 70.9345H355.65C355.447 70.0595 355.011 69.3571 354.348 68.8233C353.685 68.2895 352.782 68.0245 351.644 68.0245C350.662 68.0245 349.799 68.2573 349.056 68.7189C348.313 69.1805 347.738 69.8468 347.33 70.7137C346.923 71.5807 346.715 72.6162 346.715 73.8244C346.715 75.0325 346.919 76.068 347.33 76.935C347.738 77.802 348.313 78.4682 349.056 78.9298C349.799 79.3914 350.662 79.6242 351.644 79.6242C352.782 79.6242 353.681 79.3593 354.348 78.8335C355.011 78.3077 355.447 77.6133 355.65 76.7544H357.128C356.848 78.0267 356.241 79.0181 355.315 79.7326C354.388 80.447 353.166 80.8002 351.644 80.8002L351.64 80.8042Z" fill="black"/>
<path d="M365.46 80.8042C364.182 80.8042 363.055 80.5112 362.085 79.9292C361.114 79.3432 360.355 78.5284 359.812 77.4809C359.269 76.4333 358.997 75.2171 358.997 73.8284C358.997 72.4396 359.269 71.2435 359.812 70.196C360.355 69.1484 361.114 68.3296 362.085 67.7396C363.055 67.1496 364.182 66.8525 365.46 66.8525C366.738 66.8525 367.92 67.1496 368.891 67.7396C369.861 68.3296 370.616 69.1484 371.152 70.196C371.687 71.2435 371.958 72.4517 371.958 73.8284C371.958 75.2051 371.691 76.4333 371.152 77.4809C370.616 78.5284 369.861 79.3432 368.891 79.9292C367.92 80.5152 366.774 80.8042 365.46 80.8042ZM365.48 79.6282C366.49 79.6282 367.377 79.3954 368.144 78.9338C368.911 78.4723 369.51 77.806 369.937 76.939C370.365 76.0721 370.58 75.0365 370.58 73.8284C370.58 72.6203 370.365 71.5887 369.937 70.7258C369.51 69.8668 368.911 69.2046 368.144 68.743C367.377 68.2814 366.49 68.0486 365.48 68.0486C364.469 68.0486 363.583 68.2814 362.816 68.743C362.049 69.2046 361.45 69.8668 361.022 70.7258C360.595 71.5847 360.379 72.6203 360.379 73.8284C360.379 75.0365 360.595 76.0721 361.022 76.939C361.45 77.806 362.049 78.4723 362.816 78.9338C363.583 79.3954 364.469 79.6282 365.48 79.6282Z" fill="black"/>
<path d="M379.112 80.8042C378.205 80.8042 377.382 80.6236 376.647 80.2664C375.913 79.9091 375.329 79.3432 374.894 78.5806C374.459 77.818 374.243 76.8427 374.243 75.6626V67.0893H375.585V75.6827C375.585 76.5938 375.737 77.3444 376.036 77.9264C376.336 78.5124 376.755 78.9378 377.291 79.2067C377.826 79.4757 378.441 79.6121 379.132 79.6121C379.823 79.6121 380.446 79.4757 380.973 79.2067C381.496 78.9378 381.908 78.5084 382.199 77.9264C382.495 77.3404 382.639 76.5938 382.639 75.6827V67.0893H383.981V75.6626C383.981 76.8427 383.765 77.818 383.33 78.5806C382.894 79.3432 382.311 79.9051 381.576 80.2664C380.841 80.6276 380.019 80.8042 379.112 80.8042Z" fill="black"/>
<path d="M386.821 80.5714V67.0853H388.163L395.584 78.3157V67.0853H396.926V80.5714H395.584L388.163 69.321V80.5714H386.821Z" fill="black"/>
<path d="M403.037 80.5714V68.2011H399.011V67.0853H408.405V68.2011H404.379V80.5714H403.037Z" fill="black"/>
</svg>
