<svg width="112" height="112" viewBox="0 0 112 112" fill="none" xmlns="http://www.w3.org/2000/svg">
<path d="M112 24C112 37.25 101.25 48 88 48C81.5 48 75.5 45.5 71.25 41.5L47.75 53.25C47.75 54 47.75 55 47.75 56C47.75 57 47.75 58 47.75 59L71.25 70.75C75.5 66.75 81.5 64 88 64C101.25 64 112 74.75 112 88C112 101.25 101.25 112 88 112C74.5 112 64 101.25 64 88C64 87 64 86 64 85.25L40.5 73.5C36.25 77.5 30.25 80 24 80C10.5 80 0 69.25 0 56C0 42.75 10.5 32 24 32C30.25 32 36.25 34.75 40.5 38.75L64 27C64 26 64 25 64 24C64 10.75 74.5 0 88 0C101.25 0 112 10.75 112 24ZM23.75 64C28.25 64 31.75 60.5 31.75 56C31.75 51.75 28.25 48 23.75 48C19.5 48 15.75 51.75 15.75 56C15.75 60.5 19.5 64 23.75 64ZM88 16C83.5 16 80 19.75 80 24C80 28.5 83.5 32 88 32C92.25 32 96 28.5 96 24C96 19.75 92.25 16 88 16ZM88 96C92.25 96 96 92.5 96 88C96 83.75 92.25 80 88 80C83.5 80 80 83.75 80 88C80 92.5 83.5 96 88 96Z" fill="url(#paint0_linear_83_111)"/>
<defs>
<linearGradient id="paint0_linear_83_111" x1="56.2663" y1="156" x2="56.2664" y2="7.00001" gradientUnits="userSpaceOnUse">
<stop offset="0.166911" stop-color="#48227C"/>
<stop offset="1" stop-color="#FF6201"/>
</linearGradient>
</defs>
</svg>
