<svg width="57" height="58" viewBox="0 0 57 58" fill="none" xmlns="http://www.w3.org/2000/svg">
<path d="M48.2422 8.56641C53.5742 13.8984 56.875 20.8809 56.875 28.498C56.875 43.9863 43.9258 56.6816 28.3105 56.6816C23.6133 56.6816 19.043 55.4121 14.8535 53.2539L0 57.0625L3.93555 42.4629C1.52344 38.2734 0.126953 33.4492 0.126953 28.3711C0.126953 12.8828 12.8223 0.1875 28.3105 0.1875C35.9277 0.1875 43.0371 3.23438 48.2422 8.56641ZM28.3105 51.8574C41.2598 51.8574 52.0508 41.3203 52.0508 28.498C52.0508 22.1504 49.3848 16.3105 44.9414 11.8672C40.498 7.42383 34.6582 5.01172 28.4375 5.01172C15.4883 5.01172 4.95117 15.5488 4.95117 28.3711C4.95117 32.8145 6.2207 37.1309 8.50586 40.9395L9.14062 41.8281L6.72852 50.4609L15.6152 48.0488L16.377 48.5566C20.0586 50.7148 24.1211 51.8574 28.3105 51.8574ZM41.2598 34.3379C41.8945 34.7188 42.4023 34.8457 42.5293 35.2266C42.7832 35.4805 42.7832 36.877 42.1484 38.5273C41.5137 40.1777 38.7207 41.7012 37.4512 41.8281C35.166 42.209 33.3887 42.082 28.9453 40.0508C21.8359 37.0039 17.2656 29.8945 16.8848 29.5137C16.5039 29.0059 14.0918 25.7051 14.0918 22.1504C14.0918 18.7227 15.8691 17.0723 16.5039 16.3105C17.1387 15.5488 17.9004 15.4219 18.4082 15.4219C18.7891 15.4219 19.2969 15.4219 19.6777 15.4219C20.1855 15.4219 20.6934 15.2949 21.3281 16.6914C21.8359 18.0879 23.3594 21.5156 23.4863 21.8965C23.6133 22.2773 23.7402 22.6582 23.4863 23.166C22.2168 25.832 20.6934 25.7051 21.4551 26.9746C24.248 31.6719 26.9141 33.3223 31.1035 35.3535C31.7383 35.7344 32.1191 35.6074 32.627 35.2266C33.0078 34.7188 34.4043 33.0684 34.7852 32.4336C35.293 31.6719 35.8008 31.7988 36.4355 32.0527C37.0703 32.3066 40.498 33.957 41.2598 34.3379Z" fill="url(#paint0_linear_83_74)"/>
<defs>
<linearGradient id="paint0_linear_83_74" x1="28.6355" y1="58" x2="28.6355" y2="-1" gradientUnits="userSpaceOnUse">
<stop offset="0.166911" stop-color="#48227C"/>
<stop offset="1" stop-color="#FF6201"/>
</linearGradient>
</defs>
</svg>
